<?xml version="1.0" encoding="UTF-8"?>
<svg width="1915px" height="333px" viewBox="0 0 1915 333" version="1.1" xmlns="http://www.w3.org/2000/svg" xmlns:xlink="http://www.w3.org/1999/xlink">
    <!-- Generator: Sketch 61.2 (89653) - https://sketch.com -->
    <title>logo2</title>
    <desc>Created with Sketch.</desc>
    <g id="logo2" stroke="none" stroke-width="1" fill="none" fill-rule="evenodd">
        <g id="The-Least-Dangerous" transform="translate(280.530000, 128.347000)" fill-rule="nonzero">
            <path d="M38.148,76.653 L38.148,16.014 L59.058,16.014 L59.058,2.346 L1.13686838e-13,2.346 L1.13686838e-13,16.014 L20.91,16.014 L20.91,76.653 L38.148,76.653 Z M82.935,76.653 L82.935,38.913 C84.363,37.655 85.8335,36.6605 87.3465,35.9295 C88.8595,35.1985 90.483,34.833 92.217,34.833 C94.529,34.833 96.28,35.5555 97.47,37.0005 C98.66,38.4455 99.255,40.46 99.255,43.044 L99.255,43.044 L99.255,76.653 L115.065,76.653 L115.065,43.044 C115.065,40.154 114.674,37.4765 113.892,35.0115 C113.11,32.5465 111.954,30.4215 110.424,28.6365 C108.894,26.8515 107.0155,25.4575 104.7885,24.4545 C102.5615,23.4515 100.003,22.95 97.113,22.95 C94.019,22.95 91.3585,23.4515 89.1315,24.4545 C86.9045,25.4575 84.839,26.775 82.935,28.407 L82.935,28.407 L82.935,0.306 L67.125,0.306 L67.125,76.653 L82.935,76.653 Z M151.386,77.469 C153.188,77.469 155.0835,77.3415 157.0725,77.0865 C159.0615,76.8315 161.0505,76.3725 163.0395,75.7095 C165.0285,75.0465 166.9665,74.1285 168.8535,72.9555 C170.7405,71.7825 172.5,70.261 174.132,68.391 L174.132,68.391 L169.542,62.73 C168.896,61.812 167.944,61.353 166.686,61.353 C165.734,61.353 164.8245,61.574 163.9575,62.016 C163.0905,62.458 162.1385,62.951 161.1015,63.495 C160.0645,64.039 158.883,64.532 157.557,64.974 C156.231,65.416 154.65,65.637 152.814,65.637 C149.38,65.637 146.575,64.6425 144.399,62.6535 C142.223,60.6645 140.88,57.46 140.37,53.04 L140.37,53.04 L170.868,53.04 C171.582,53.04 172.1685,52.955 172.6275,52.785 C173.0865,52.615 173.452,52.309 173.724,51.867 C173.996,51.425 174.183,50.83 174.285,50.082 C174.387,49.334 174.438,48.365 174.438,47.175 C174.438,43.367 173.8515,39.9585 172.6785,36.9495 C171.5055,33.9405 169.8735,31.399 167.7825,29.325 C165.6915,27.251 163.1925,25.67 160.2855,24.582 C157.3785,23.494 154.174,22.95 150.672,22.95 C146.626,22.95 142.9965,23.647 139.7835,25.041 C136.5705,26.435 133.8335,28.322 131.5725,30.702 C129.3115,33.082 127.5775,35.853 126.3705,39.015 C125.1635,42.177 124.56,45.526 124.56,49.062 C124.56,53.754 125.2655,57.868 126.6765,61.404 C128.0875,64.94 130.0085,67.898 132.4395,70.278 C134.8705,72.658 137.7095,74.4515 140.9565,75.6585 C144.2035,76.8655 147.68,77.469 151.386,77.469 Z M160.26,43.86 L140.574,43.86 C141.118,40.63 142.24,38.1565 143.94,36.4395 C145.64,34.7225 147.986,33.864 150.978,33.864 C152.678,33.864 154.123,34.153 155.313,34.731 C156.503,35.309 157.4635,36.0655 158.1945,37.0005 C158.9255,37.9355 159.4525,38.998 159.7755,40.188 C160.0985,41.378 160.26,42.602 160.26,43.86 L160.26,43.86 Z M256.719,76.653 L256.719,62.883 L229.179,62.883 L229.179,2.346 L211.941,2.346 L211.941,76.653 L256.719,76.653 Z M288.093,77.469 C289.895,77.469 291.7905,77.3415 293.7795,77.0865 C295.7685,76.8315 297.7575,76.3725 299.7465,75.7095 C301.7355,75.0465 303.6735,74.1285 305.5605,72.9555 C307.4475,71.7825 309.207,70.261 310.839,68.391 L310.839,68.391 L306.249,62.73 C305.603,61.812 304.651,61.353 303.393,61.353 C302.441,61.353 301.5315,61.574 300.6645,62.016 C299.7975,62.458 298.8455,62.951 297.8085,63.495 C296.7715,64.039 295.59,64.532 294.264,64.974 C292.938,65.416 291.357,65.637 289.521,65.637 C286.087,65.637 283.282,64.6425 281.106,62.6535 C278.93,60.6645 277.587,57.46 277.077,53.04 L277.077,53.04 L307.575,53.04 C308.289,53.04 308.8755,52.955 309.3345,52.785 C309.7935,52.615 310.159,52.309 310.431,51.867 C310.703,51.425 310.89,50.83 310.992,50.082 C311.094,49.334 311.145,48.365 311.145,47.175 C311.145,43.367 310.5585,39.9585 309.3855,36.9495 C308.2125,33.9405 306.5805,31.399 304.4895,29.325 C302.3985,27.251 299.8995,25.67 296.9925,24.582 C294.0855,23.494 290.881,22.95 287.379,22.95 C283.333,22.95 279.7035,23.647 276.4905,25.041 C273.2775,26.435 270.5405,28.322 268.2795,30.702 C266.0185,33.082 264.2845,35.853 263.0775,39.015 C261.8705,42.177 261.267,45.526 261.267,49.062 C261.267,53.754 261.9725,57.868 263.3835,61.404 C264.7945,64.94 266.7155,67.898 269.1465,70.278 C271.5775,72.658 274.4165,74.4515 277.6635,75.6585 C280.9105,76.8655 284.387,77.469 288.093,77.469 Z M296.967,43.86 L277.281,43.86 C277.825,40.63 278.947,38.1565 280.647,36.4395 C282.347,34.7225 284.693,33.864 287.685,33.864 C289.385,33.864 290.83,34.153 292.02,34.731 C293.21,35.309 294.1705,36.0655 294.9015,37.0005 C295.6325,37.9355 296.1595,38.998 296.4825,40.188 C296.8055,41.378 296.967,42.602 296.967,43.86 L296.967,43.86 Z M333.441,77.469 C335.243,77.469 336.8835,77.3245 338.3625,77.0355 C339.8415,76.7465 341.2355,76.3045 342.5445,75.7095 C343.8535,75.1145 345.12,74.392 346.344,73.542 C347.568,72.692 348.843,71.706 350.169,70.584 L350.169,70.584 L351.291,73.491 C351.801,74.783 352.4385,75.633 353.2035,76.041 C353.9685,76.449 355.099,76.653 356.595,76.653 L356.595,76.653 L363.837,76.653 L363.837,43.605 C363.837,40.579 363.361,37.791 362.409,35.241 C361.457,32.691 360.0885,30.4895 358.3035,28.6365 C356.5185,26.7835 354.3425,25.3385 351.7755,24.3015 C349.2085,23.2645 346.327,22.746 343.131,22.746 C338.677,22.746 334.5035,23.4345 330.6105,24.8115 C326.7175,26.1885 323.173,28.288 319.977,31.11 L319.977,31.11 L322.833,36.057 C323.309,36.805 323.921,37.451 324.669,37.995 C325.417,38.539 326.335,38.811 327.423,38.811 C328.647,38.811 329.701,38.607 330.585,38.199 C331.469,37.791 332.3785,37.332 333.3135,36.822 C334.2485,36.312 335.311,35.853 336.501,35.445 C337.691,35.037 339.221,34.833 341.091,34.833 C343.437,34.833 345.2475,35.5215 346.5225,36.8985 C347.7975,38.2755 348.435,40.511 348.435,43.605 L348.435,43.605 L348.435,45.849 C342.383,45.985 337.368,46.597 333.39,47.685 C329.412,48.773 326.25,50.1245 323.904,51.7395 C321.558,53.3545 319.909,55.1395 318.957,57.0945 C318.005,59.0495 317.529,60.979 317.529,62.883 C317.529,65.263 317.903,67.3625 318.651,69.1815 C319.399,71.0005 320.4615,72.522 321.8385,73.746 C323.2155,74.97 324.89,75.8965 326.862,76.5255 C328.834,77.1545 331.027,77.469 333.441,77.469 Z M338.439,67.014 C336.535,67.014 335.09,66.6485 334.104,65.9175 C333.118,65.1865 332.625,63.92 332.625,62.118 C332.625,61.2 332.8545,60.35 333.3135,59.568 C333.7725,58.786 334.597,58.089 335.787,57.477 C336.977,56.865 338.592,56.355 340.632,55.947 C342.672,55.539 345.273,55.267 348.435,55.131 L348.435,55.131 L348.435,62.475 C346.871,64.073 345.324,65.229 343.794,65.943 C342.264,66.657 340.479,67.014 338.439,67.014 Z M391.284,77.469 C394.888,77.469 398.0755,77.027 400.8465,76.143 C403.6175,75.259 405.9465,74.018 407.8335,72.42 C409.7205,70.822 411.14,68.918 412.092,66.708 C413.044,64.498 413.52,62.084 413.52,59.466 C413.52,57.324 413.1715,55.488 412.4745,53.958 C411.7775,52.428 410.851,51.1275 409.695,50.0565 C408.539,48.9855 407.23,48.0845 405.768,47.3535 C404.306,46.6225 402.81,45.985 401.28,45.441 C399.75,44.897 398.254,44.404 396.792,43.962 C395.33,43.52 394.021,43.0525 392.865,42.5595 C391.709,42.0665 390.7825,41.497 390.0855,40.851 C389.3885,40.205 389.04,39.389 389.04,38.403 C389.04,37.043 389.5755,35.9805 390.6465,35.2155 C391.7175,34.4505 393.256,34.068 395.262,34.068 C396.656,34.068 397.897,34.2295 398.985,34.5525 C400.073,34.8755 401.0505,35.224 401.9175,35.598 C402.7845,35.972 403.592,36.3205 404.34,36.6435 C405.088,36.9665 405.836,37.128 406.584,37.128 C407.298,37.128 407.8845,36.992 408.3435,36.72 C408.8025,36.448 409.236,35.989 409.644,35.343 L409.644,35.343 L413.214,29.784 C412.228,28.798 411.089,27.8885 409.797,27.0555 C408.505,26.2225 407.077,25.5 405.513,24.888 C403.949,24.276 402.2745,23.8 400.4895,23.46 C398.7045,23.12 396.86,22.95 394.956,22.95 C391.454,22.95 388.394,23.4005 385.776,24.3015 C383.158,25.2025 380.982,26.418 379.248,27.948 C377.514,29.478 376.2135,31.2545 375.3465,33.2775 C374.4795,35.3005 374.046,37.434 374.046,39.678 C374.046,42.092 374.403,44.149 375.117,45.849 C375.831,47.549 376.766,48.9855 377.922,50.1585 C379.078,51.3315 380.3955,52.3005 381.8745,53.0655 C383.3535,53.8305 384.858,54.485 386.388,55.029 C387.918,55.573 389.4225,56.0575 390.9015,56.4825 C392.3805,56.9075 393.698,57.3665 394.854,57.8595 C396.01,58.3525 396.945,58.939 397.659,59.619 C398.373,60.299 398.73,61.166 398.73,62.22 C398.73,62.798 398.611,63.359 398.373,63.903 C398.135,64.447 397.761,64.94 397.251,65.382 C396.741,65.824 396.061,66.1725 395.211,66.4275 C394.361,66.6825 393.324,66.81 392.1,66.81 C390.366,66.81 388.9295,66.606 387.7905,66.198 C386.6515,65.79 385.657,65.348 384.807,64.872 C383.957,64.396 383.1665,63.954 382.4355,63.546 C381.7045,63.138 380.88,62.934 379.962,62.934 C378.976,62.934 378.1685,63.1295 377.5395,63.5205 C376.9105,63.9115 376.392,64.447 375.984,65.127 L375.984,65.127 L372.312,70.941 C373.332,71.859 374.556,72.7175 375.984,73.5165 C377.412,74.3155 378.9675,75.004 380.6505,75.582 C382.3335,76.16 384.076,76.619 385.878,76.959 C387.68,77.299 389.482,77.469 391.284,77.469 Z M442.497,77.469 C445.217,77.469 447.852,77.0865 450.402,76.3215 C452.952,75.5565 455.247,74.409 457.287,72.879 L457.287,72.879 L452.493,65.382 C452.187,64.906 451.8895,64.5575 451.6005,64.3365 C451.3115,64.1155 450.929,64.005 450.453,64.005 C450.113,64.005 449.8155,64.0645 449.5605,64.1835 C449.3055,64.3025 449.0335,64.4385 448.7445,64.5915 C448.4555,64.7445 448.1155,64.8805 447.7245,64.9995 C447.3335,65.1185 446.849,65.178 446.271,65.178 C445.149,65.178 444.2905,64.7785 443.6955,63.9795 C443.1005,63.1805 442.803,62.169 442.803,60.945 L442.803,60.945 L442.803,34.68 L455.91,34.68 L455.91,23.868 L442.803,23.868 L442.803,8.415 L434.541,8.415 C432.637,8.415 431.481,9.231 431.073,10.863 L431.073,10.863 L427.962,23.766 L419.547,25.398 L419.547,31.569 C419.547,32.589 419.836,33.3625 420.414,33.8895 C420.992,34.4165 421.689,34.68 422.505,34.68 L422.505,34.68 L426.993,34.68 L426.993,62.016 C426.993,64.362 427.333,66.487 428.013,68.391 C428.693,70.295 429.6875,71.9185 430.9965,73.2615 C432.3055,74.6045 433.9205,75.6415 435.8415,76.3725 C437.7625,77.1035 439.981,77.469 442.497,77.469 Z" id="TheLeast" fill="#2A3541"></path>
            <path d="M521.208,76.653 C526.988,76.653 532.2495,75.7265 536.9925,73.8735 C541.7355,72.0205 545.79,69.4365 549.156,66.1215 C552.522,62.8065 555.1315,58.8795 556.9845,54.3405 C558.8375,49.8015 559.764,44.846 559.764,39.474 C559.764,34.136 558.8375,29.1975 556.9845,24.6585 C555.1315,20.1195 552.522,16.201 549.156,12.903 C545.79,9.605 541.7355,7.021 536.9925,5.151 C532.2495,3.281 526.988,2.346 521.208,2.346 L521.208,2.346 L492.342,2.346 L492.342,76.653 L521.208,76.653 Z M521.208,63.393 L509.682,63.393 L509.682,15.606 L521.208,15.606 C524.506,15.606 527.447,16.1585 530.031,17.2635 C532.615,18.3685 534.7995,19.9495 536.5845,22.0065 C538.3695,24.0635 539.738,26.571 540.69,29.529 C541.642,32.487 542.118,35.802 542.118,39.474 C542.118,43.18 541.642,46.512 540.69,49.47 C539.738,52.428 538.3695,54.9355 536.5845,56.9925 C534.7995,59.0495 532.615,60.6305 530.031,61.7355 C527.447,62.8405 524.506,63.393 521.208,63.393 L521.208,63.393 Z M581.346,77.469 C583.148,77.469 584.7885,77.3245 586.2675,77.0355 C587.7465,76.7465 589.1405,76.3045 590.4495,75.7095 C591.7585,75.1145 593.025,74.392 594.249,73.542 C595.473,72.692 596.748,71.706 598.074,70.584 L598.074,70.584 L599.196,73.491 C599.706,74.783 600.3435,75.633 601.1085,76.041 C601.8735,76.449 603.004,76.653 604.5,76.653 L604.5,76.653 L611.742,76.653 L611.742,43.605 C611.742,40.579 611.266,37.791 610.314,35.241 C609.362,32.691 607.9935,30.4895 606.2085,28.6365 C604.4235,26.7835 602.2475,25.3385 599.6805,24.3015 C597.1135,23.2645 594.232,22.746 591.036,22.746 C586.582,22.746 582.4085,23.4345 578.5155,24.8115 C574.6225,26.1885 571.078,28.288 567.882,31.11 L567.882,31.11 L570.738,36.057 C571.214,36.805 571.826,37.451 572.574,37.995 C573.322,38.539 574.24,38.811 575.328,38.811 C576.552,38.811 577.606,38.607 578.49,38.199 C579.374,37.791 580.2835,37.332 581.2185,36.822 C582.1535,36.312 583.216,35.853 584.406,35.445 C585.596,35.037 587.126,34.833 588.996,34.833 C591.342,34.833 593.1525,35.5215 594.4275,36.8985 C595.7025,38.2755 596.34,40.511 596.34,43.605 L596.34,43.605 L596.34,45.849 C590.288,45.985 585.273,46.597 581.295,47.685 C577.317,48.773 574.155,50.1245 571.809,51.7395 C569.463,53.3545 567.814,55.1395 566.862,57.0945 C565.91,59.0495 565.434,60.979 565.434,62.883 C565.434,65.263 565.808,67.3625 566.556,69.1815 C567.304,71.0005 568.3665,72.522 569.7435,73.746 C571.1205,74.97 572.795,75.8965 574.767,76.5255 C576.739,77.1545 578.932,77.469 581.346,77.469 Z M586.344,67.014 C584.44,67.014 582.995,66.6485 582.009,65.9175 C581.023,65.1865 580.53,63.92 580.53,62.118 C580.53,61.2 580.7595,60.35 581.2185,59.568 C581.6775,58.786 582.502,58.089 583.692,57.477 C584.882,56.865 586.497,56.355 588.537,55.947 C590.577,55.539 593.178,55.267 596.34,55.131 L596.34,55.131 L596.34,62.475 C594.776,64.073 593.229,65.229 591.699,65.943 C590.169,66.657 588.384,67.014 586.344,67.014 Z M639.75,76.653 L639.75,38.913 C641.178,37.655 642.6485,36.6605 644.1615,35.9295 C645.6745,35.1985 647.298,34.833 649.032,34.833 C651.344,34.833 653.095,35.5555 654.285,37.0005 C655.475,38.4455 656.07,40.46 656.07,43.044 L656.07,43.044 L656.07,76.653 L671.88,76.653 L671.88,43.044 C671.88,40.154 671.489,37.4765 670.707,35.0115 C669.925,32.5465 668.769,30.4215 667.239,28.6365 C665.709,26.8515 663.8305,25.4575 661.6035,24.4545 C659.3765,23.4515 656.818,22.95 653.928,22.95 C652.228,22.95 650.6555,23.1115 649.2105,23.4345 C647.7655,23.7575 646.4225,24.1995 645.1815,24.7605 C643.9405,25.3215 642.776,26.01 641.688,26.826 C640.6,27.642 639.546,28.526 638.526,29.478 L638.526,29.478 L637.608,26.418 C636.996,24.65 635.704,23.766 633.732,23.766 L633.732,23.766 L623.94,23.766 L623.94,76.653 L639.75,76.653 Z M704.835,94.86 C709.051,94.86 712.791,94.3245 716.055,93.2535 C719.319,92.1825 722.073,90.763 724.317,88.995 C726.561,87.227 728.261,85.204 729.417,82.926 C730.573,80.648 731.151,78.319 731.151,75.939 C731.151,73.389 730.675,71.2895 729.723,69.6405 C728.771,67.9915 727.513,66.674 725.949,65.688 C724.385,64.702 722.6085,63.988 720.6195,63.546 C718.6305,63.104 716.599,62.7895 714.525,62.6025 C712.451,62.4155 710.4195,62.2965 708.4305,62.2455 C706.4415,62.1945 704.665,62.0925 703.101,61.9395 C701.537,61.7865 700.279,61.5145 699.327,61.1235 C698.375,60.7325 697.899,60.095 697.899,59.211 C697.899,58.327 698.477,57.528 699.633,56.814 C700.381,56.95 701.146,57.0435 701.928,57.0945 C702.71,57.1455 703.509,57.171 704.325,57.171 C707.317,57.171 710.122,56.7715 712.74,55.9725 C715.358,55.1735 717.6275,54.0345 719.5485,52.5555 C721.4695,51.0765 722.9825,49.283 724.0875,47.175 C725.1925,45.067 725.745,42.687 725.745,40.035 C725.745,39.185 725.6855,38.369 725.5665,37.587 C725.4475,36.805 725.286,36.04 725.082,35.292 L725.082,35.292 L728.907,34.425 C730.097,34.153 730.9385,33.762 731.4315,33.252 C731.9245,32.742 732.171,32.045 732.171,31.161 L732.171,31.161 L732.171,25.398 L716.259,25.398 C712.791,23.698 708.813,22.848 704.325,22.848 C701.231,22.848 698.358,23.2475 695.706,24.0465 C693.054,24.8455 690.7505,25.9845 688.7955,27.4635 C686.8405,28.9425 685.302,30.7445 684.18,32.8695 C683.058,34.9945 682.497,37.383 682.497,40.035 C682.497,43.231 683.296,46.0275 684.894,48.4245 C686.492,50.8215 688.668,52.751 691.422,54.213 C690.198,54.791 689.144,55.454 688.26,56.202 C687.376,56.95 686.6365,57.7405 686.0415,58.5735 C685.4465,59.4065 685.013,60.2565 684.741,61.1235 C684.469,61.9905 684.333,62.815 684.333,63.597 C684.333,65.535 684.707,67.116 685.455,68.34 C686.203,69.564 687.223,70.567 688.515,71.349 C686.067,72.301 684.163,73.559 682.803,75.123 C681.443,76.687 680.763,78.642 680.763,80.988 C680.763,82.79 681.239,84.524 682.191,86.19 C683.143,87.856 684.6135,89.3265 686.6025,90.6015 C688.5915,91.8765 691.0905,92.905 694.0995,93.687 C697.1085,94.469 700.687,94.86 704.835,94.86 Z M704.325,47.43 C703.033,47.43 701.9195,47.2515 700.9845,46.8945 C700.0495,46.5375 699.276,46.0445 698.664,45.4155 C698.052,44.7865 697.6015,44.047 697.3125,43.197 C697.0235,42.347 696.879,41.412 696.879,40.392 C696.879,38.25 697.4655,36.567 698.6385,35.343 C699.8115,34.119 701.707,33.507 704.325,33.507 C706.943,33.507 708.8385,34.119 710.0115,35.343 C711.1845,36.567 711.771,38.25 711.771,40.392 C711.771,42.466 711.1845,44.1575 710.0115,45.4665 C708.8385,46.7755 706.943,47.43 704.325,47.43 Z M705.141,83.997 C703.033,83.997 701.2905,83.8695 699.9135,83.6145 C698.5365,83.3595 697.44,83.011 696.624,82.569 C695.808,82.127 695.2385,81.6 694.9155,80.988 C694.5925,80.376 694.431,79.696 694.431,78.948 C694.431,77.894 694.7455,76.9505 695.3745,76.1175 C696.0035,75.2845 696.811,74.528 697.797,73.848 C700.007,74.052 702.2255,74.1795 704.4525,74.2305 C706.6795,74.2815 708.694,74.426 710.496,74.664 C712.298,74.902 713.76,75.3015 714.882,75.8625 C716.004,76.4235 716.565,77.333 716.565,78.591 C716.565,79.373 716.395,80.0955 716.055,80.7585 C715.715,81.4215 715.1115,81.991 714.2445,82.467 C713.3775,82.943 712.213,83.317 710.751,83.589 C709.289,83.861 707.419,83.997 705.141,83.997 Z M763.902,77.469 C765.704,77.469 767.5995,77.3415 769.5885,77.0865 C771.5775,76.8315 773.5665,76.3725 775.5555,75.7095 C777.5445,75.0465 779.4825,74.1285 781.3695,72.9555 C783.2565,71.7825 785.016,70.261 786.648,68.391 L786.648,68.391 L782.058,62.73 C781.412,61.812 780.46,61.353 779.202,61.353 C778.25,61.353 777.3405,61.574 776.4735,62.016 C775.6065,62.458 774.6545,62.951 773.6175,63.495 C772.5805,64.039 771.399,64.532 770.073,64.974 C768.747,65.416 767.166,65.637 765.33,65.637 C761.896,65.637 759.091,64.6425 756.915,62.6535 C754.739,60.6645 753.396,57.46 752.886,53.04 L752.886,53.04 L783.384,53.04 C784.098,53.04 784.6845,52.955 785.1435,52.785 C785.6025,52.615 785.968,52.309 786.24,51.867 C786.512,51.425 786.699,50.83 786.801,50.082 C786.903,49.334 786.954,48.365 786.954,47.175 C786.954,43.367 786.3675,39.9585 785.1945,36.9495 C784.0215,33.9405 782.3895,31.399 780.2985,29.325 C778.2075,27.251 775.7085,25.67 772.8015,24.582 C769.8945,23.494 766.69,22.95 763.188,22.95 C759.142,22.95 755.5125,23.647 752.2995,25.041 C749.0865,26.435 746.3495,28.322 744.0885,30.702 C741.8275,33.082 740.0935,35.853 738.8865,39.015 C737.6795,42.177 737.076,45.526 737.076,49.062 C737.076,53.754 737.7815,57.868 739.1925,61.404 C740.6035,64.94 742.5245,67.898 744.9555,70.278 C747.3865,72.658 750.2255,74.4515 753.4725,75.6585 C756.7195,76.8655 760.196,77.469 763.902,77.469 Z M772.776,43.86 L753.09,43.86 C753.634,40.63 754.756,38.1565 756.456,36.4395 C758.156,34.7225 760.502,33.864 763.494,33.864 C765.194,33.864 766.639,34.153 767.829,34.731 C769.019,35.309 769.9795,36.0655 770.7105,37.0005 C771.4415,37.9355 771.9685,38.998 772.2915,40.188 C772.6145,41.378 772.776,42.602 772.776,43.86 L772.776,43.86 Z M812.769,76.653 L812.769,44.523 C813.721,42.347 814.8855,40.647 816.2625,39.423 C817.6395,38.199 819.484,37.587 821.796,37.587 C822.204,37.587 822.6545,37.6125 823.1475,37.6635 C823.6405,37.7145 824.125,37.7655 824.601,37.8165 C825.077,37.8675 825.536,37.91 825.978,37.944 C826.42,37.978 826.777,37.995 827.049,37.995 C827.729,37.995 828.2645,37.859 828.6555,37.587 C829.0465,37.315 829.327,36.805 829.497,36.057 L829.497,36.057 L830.517,24.429 C829.021,23.307 827.083,22.746 824.703,22.746 C821.949,22.746 819.5095,23.562 817.3845,25.194 C815.2595,26.826 813.381,29.07 811.749,31.926 L811.749,31.926 L810.933,27.489 C810.797,26.809 810.6355,26.231 810.4485,25.755 C810.2615,25.279 809.9895,24.8965 809.6325,24.6075 C809.2755,24.3185 808.8335,24.106 808.3065,23.97 C807.7795,23.834 807.125,23.766 806.343,23.766 L806.343,23.766 L796.959,23.766 L796.959,76.653 L812.769,76.653 Z M861.432,77.469 C865.444,77.469 869.099,76.8315 872.397,75.5565 C875.695,74.2815 878.5255,72.4625 880.8885,70.0995 C883.2515,67.7365 885.0875,64.8635 886.3965,61.4805 C887.7055,58.0975 888.36,54.298 888.36,50.082 C888.36,45.9 887.7055,42.1345 886.3965,38.7855 C885.0875,35.4365 883.2515,32.589 880.8885,30.243 C878.5255,27.897 875.695,26.095 872.397,24.837 C869.099,23.579 865.444,22.95 861.432,22.95 C857.386,22.95 853.7055,23.579 850.3905,24.837 C847.0755,26.095 844.2195,27.897 841.8225,30.243 C839.4255,32.589 837.5725,35.4365 836.2635,38.7855 C834.9545,42.1345 834.3,45.9 834.3,50.082 C834.3,54.298 834.9545,58.0975 836.2635,61.4805 C837.5725,64.8635 839.4255,67.7365 841.8225,70.0995 C844.2195,72.4625 847.0755,74.2815 850.3905,75.5565 C853.7055,76.8315 857.386,77.469 861.432,77.469 Z M861.432,65.739 C857.692,65.739 854.955,64.4555 853.221,61.8885 C851.487,59.3215 850.62,55.42 850.62,50.184 C850.62,44.948 851.487,41.055 853.221,38.505 C854.955,35.955 857.692,34.68 861.432,34.68 C865.07,34.68 867.7475,35.955 869.4645,38.505 C871.1815,41.055 872.04,44.948 872.04,50.184 C872.04,55.42 871.1815,59.3215 869.4645,61.8885 C867.7475,64.4555 865.07,65.739 861.432,65.739 Z M915.858,77.469 C917.558,77.469 919.1305,77.3075 920.5755,76.9845 C922.0205,76.6615 923.3635,76.2195 924.6045,75.6585 C925.8455,75.0975 927.01,74.4175 928.098,73.6185 C929.186,72.8195 930.24,71.927 931.26,70.941 L931.26,70.941 L932.178,74.001 C932.79,75.769 934.082,76.653 936.054,76.653 L936.054,76.653 L945.846,76.653 L945.846,23.766 L930.036,23.766 L930.036,61.455 C928.608,62.713 927.1375,63.7075 925.6245,64.4385 C924.1115,65.1695 922.488,65.535 920.754,65.535 C918.442,65.535 916.691,64.821 915.501,63.393 C914.311,61.965 913.716,59.942 913.716,57.324 L913.716,57.324 L913.716,23.766 L897.906,23.766 L897.906,57.324 C897.906,60.248 898.297,62.934 899.079,65.382 C899.861,67.83 901.017,69.955 902.547,71.757 C904.077,73.559 905.9555,74.9615 908.1825,75.9645 C910.4095,76.9675 912.968,77.469 915.858,77.469 Z M973.905,77.469 C977.509,77.469 980.6965,77.027 983.4675,76.143 C986.2385,75.259 988.5675,74.018 990.4545,72.42 C992.3415,70.822 993.761,68.918 994.713,66.708 C995.665,64.498 996.141,62.084 996.141,59.466 C996.141,57.324 995.7925,55.488 995.0955,53.958 C994.3985,52.428 993.472,51.1275 992.316,50.0565 C991.16,48.9855 989.851,48.0845 988.389,47.3535 C986.927,46.6225 985.431,45.985 983.901,45.441 C982.371,44.897 980.875,44.404 979.413,43.962 C977.951,43.52 976.642,43.0525 975.486,42.5595 C974.33,42.0665 973.4035,41.497 972.7065,40.851 C972.0095,40.205 971.661,39.389 971.661,38.403 C971.661,37.043 972.1965,35.9805 973.2675,35.2155 C974.3385,34.4505 975.877,34.068 977.883,34.068 C979.277,34.068 980.518,34.2295 981.606,34.5525 C982.694,34.8755 983.6715,35.224 984.5385,35.598 C985.4055,35.972 986.213,36.3205 986.961,36.6435 C987.709,36.9665 988.457,37.128 989.205,37.128 C989.919,37.128 990.5055,36.992 990.9645,36.72 C991.4235,36.448 991.857,35.989 992.265,35.343 L992.265,35.343 L995.835,29.784 C994.849,28.798 993.71,27.8885 992.418,27.0555 C991.126,26.2225 989.698,25.5 988.134,24.888 C986.57,24.276 984.8955,23.8 983.1105,23.46 C981.3255,23.12 979.481,22.95 977.577,22.95 C974.075,22.95 971.015,23.4005 968.397,24.3015 C965.779,25.2025 963.603,26.418 961.869,27.948 C960.135,29.478 958.8345,31.2545 957.9675,33.2775 C957.1005,35.3005 956.667,37.434 956.667,39.678 C956.667,42.092 957.024,44.149 957.738,45.849 C958.452,47.549 959.387,48.9855 960.543,50.1585 C961.699,51.3315 963.0165,52.3005 964.4955,53.0655 C965.9745,53.8305 967.479,54.485 969.009,55.029 C970.539,55.573 972.0435,56.0575 973.5225,56.4825 C975.0015,56.9075 976.319,57.3665 977.475,57.8595 C978.631,58.3525 979.566,58.939 980.28,59.619 C980.994,60.299 981.351,61.166 981.351,62.22 C981.351,62.798 981.232,63.359 980.994,63.903 C980.756,64.447 980.382,64.94 979.872,65.382 C979.362,65.824 978.682,66.1725 977.832,66.4275 C976.982,66.6825 975.945,66.81 974.721,66.81 C972.987,66.81 971.5505,66.606 970.4115,66.198 C969.2725,65.79 968.278,65.348 967.428,64.872 C966.578,64.396 965.7875,63.954 965.0565,63.546 C964.3255,63.138 963.501,62.934 962.583,62.934 C961.597,62.934 960.7895,63.1295 960.1605,63.5205 C959.5315,63.9115 959.013,64.447 958.605,65.127 L958.605,65.127 L954.933,70.941 C955.953,71.859 957.177,72.7175 958.605,73.5165 C960.033,74.3155 961.5885,75.004 963.2715,75.582 C964.9545,76.16 966.697,76.619 968.499,76.959 C970.301,77.299 972.103,77.469 973.905,77.469 Z" id="Dangerous" fill="#EC313C"></path>
            <path d="M1063.071,76.653 L1063.071,16.014 L1083.981,16.014 L1083.981,2.346 L1024.923,2.346 L1024.923,16.014 L1045.833,16.014 L1045.833,76.653 L1063.071,76.653 Z M1105.257,77.469 C1109.269,77.469 1112.924,76.8315 1116.222,75.5565 C1119.52,74.2815 1122.3505,72.4625 1124.7135,70.0995 C1127.0765,67.7365 1128.9125,64.8635 1130.2215,61.4805 C1131.5305,58.0975 1132.185,54.298 1132.185,50.082 C1132.185,45.9 1131.5305,42.1345 1130.2215,38.7855 C1128.9125,35.4365 1127.0765,32.589 1124.7135,30.243 C1122.3505,27.897 1119.52,26.095 1116.222,24.837 C1112.924,23.579 1109.269,22.95 1105.257,22.95 C1101.211,22.95 1097.5305,23.579 1094.2155,24.837 C1090.9005,26.095 1088.0445,27.897 1085.6475,30.243 C1083.2505,32.589 1081.3975,35.4365 1080.0885,38.7855 C1078.7795,42.1345 1078.125,45.9 1078.125,50.082 C1078.125,54.298 1078.7795,58.0975 1080.0885,61.4805 C1081.3975,64.8635 1083.2505,67.7365 1085.6475,70.0995 C1088.0445,72.4625 1090.9005,74.2815 1094.2155,75.5565 C1097.5305,76.8315 1101.211,77.469 1105.257,77.469 Z M1105.257,65.739 C1101.517,65.739 1098.78,64.4555 1097.046,61.8885 C1095.312,59.3215 1094.445,55.42 1094.445,50.184 C1094.445,44.948 1095.312,41.055 1097.046,38.505 C1098.78,35.955 1101.517,34.68 1105.257,34.68 C1108.895,34.68 1111.5725,35.955 1113.2895,38.505 C1115.0065,41.055 1115.865,44.948 1115.865,50.184 C1115.865,55.42 1115.0065,59.3215 1113.2895,61.8885 C1111.5725,64.4555 1108.895,65.739 1105.257,65.739 Z M1169.73,52.02 L1169.73,39.27 L1142.19,39.27 L1142.19,52.02 L1169.73,52.02 Z M1213.191,76.653 C1218.971,76.653 1224.2325,75.7265 1228.9755,73.8735 C1233.7185,72.0205 1237.773,69.4365 1241.139,66.1215 C1244.505,62.8065 1247.1145,58.8795 1248.9675,54.3405 C1250.8205,49.8015 1251.747,44.846 1251.747,39.474 C1251.747,34.136 1250.8205,29.1975 1248.9675,24.6585 C1247.1145,20.1195 1244.505,16.201 1241.139,12.903 C1237.773,9.605 1233.7185,7.021 1228.9755,5.151 C1224.2325,3.281 1218.971,2.346 1213.191,2.346 L1213.191,2.346 L1184.325,2.346 L1184.325,76.653 L1213.191,76.653 Z M1213.191,63.393 L1201.665,63.393 L1201.665,15.606 L1213.191,15.606 C1216.489,15.606 1219.43,16.1585 1222.014,17.2635 C1224.598,18.3685 1226.7825,19.9495 1228.5675,22.0065 C1230.3525,24.0635 1231.721,26.571 1232.673,29.529 C1233.625,32.487 1234.101,35.802 1234.101,39.474 C1234.101,43.18 1233.625,46.512 1232.673,49.47 C1231.721,52.428 1230.3525,54.9355 1228.5675,56.9925 C1226.7825,59.0495 1224.598,60.6305 1222.014,61.7355 C1219.43,62.8405 1216.489,63.393 1213.191,63.393 L1213.191,63.393 Z M1285.977,77.469 C1289.989,77.469 1293.644,76.8315 1296.942,75.5565 C1300.24,74.2815 1303.0705,72.4625 1305.4335,70.0995 C1307.7965,67.7365 1309.6325,64.8635 1310.9415,61.4805 C1312.2505,58.0975 1312.905,54.298 1312.905,50.082 C1312.905,45.9 1312.2505,42.1345 1310.9415,38.7855 C1309.6325,35.4365 1307.7965,32.589 1305.4335,30.243 C1303.0705,27.897 1300.24,26.095 1296.942,24.837 C1293.644,23.579 1289.989,22.95 1285.977,22.95 C1281.931,22.95 1278.2505,23.579 1274.9355,24.837 C1271.6205,26.095 1268.7645,27.897 1266.3675,30.243 C1263.9705,32.589 1262.1175,35.4365 1260.8085,38.7855 C1259.4995,42.1345 1258.845,45.9 1258.845,50.082 C1258.845,54.298 1259.4995,58.0975 1260.8085,61.4805 C1262.1175,64.8635 1263.9705,67.7365 1266.3675,70.0995 C1268.7645,72.4625 1271.6205,74.2815 1274.9355,75.5565 C1278.2505,76.8315 1281.931,77.469 1285.977,77.469 Z M1285.977,65.739 C1282.237,65.739 1279.5,64.4555 1277.766,61.8885 C1276.032,59.3215 1275.165,55.42 1275.165,50.184 C1275.165,44.948 1276.032,41.055 1277.766,38.505 C1279.5,35.955 1282.237,34.68 1285.977,34.68 C1289.615,34.68 1292.2925,35.955 1294.0095,38.505 C1295.7265,41.055 1296.585,44.948 1296.585,50.184 C1296.585,55.42 1295.7265,59.3215 1294.0095,61.8885 C1292.2925,64.4555 1289.615,65.739 1285.977,65.739 Z M1395.237,76.653 L1395.237,62.883 L1367.697,62.883 L1367.697,2.346 L1350.459,2.346 L1350.459,76.653 L1395.237,76.653 Z M1412.382,18.462 C1413.708,18.462 1414.9575,18.2155 1416.1305,17.7225 C1417.3035,17.2295 1418.332,16.5665 1419.216,15.7335 C1420.1,14.9005 1420.797,13.9315 1421.307,12.8265 C1421.817,11.7215 1422.072,10.54 1422.072,9.282 C1422.072,7.99 1421.817,6.783 1421.307,5.661 C1420.797,4.539 1420.1,3.553 1419.216,2.703 C1418.332,1.853 1417.3035,1.19 1416.1305,0.714 C1414.9575,0.238 1413.708,4.8316906e-13 1412.382,4.8316906e-13 C1411.09,4.8316906e-13 1409.883,0.238 1408.761,0.714 C1407.639,1.19 1406.6445,1.853 1405.7775,2.703 C1404.9105,3.553 1404.2305,4.539 1403.7375,5.661 C1403.2445,6.783 1402.998,7.99 1402.998,9.282 C1402.998,10.54 1403.2445,11.7215 1403.7375,12.8265 C1404.2305,13.9315 1404.9105,14.9005 1405.7775,15.7335 C1406.6445,16.5665 1407.639,17.2295 1408.761,17.7225 C1409.883,18.2155 1411.09,18.462 1412.382,18.462 Z M1420.44,76.653 L1420.44,23.766 L1404.63,23.766 L1404.63,76.653 L1420.44,76.653 Z M1448.856,77.469 C1452.46,77.469 1455.6475,77.027 1458.4185,76.143 C1461.1895,75.259 1463.5185,74.018 1465.4055,72.42 C1467.2925,70.822 1468.712,68.918 1469.664,66.708 C1470.616,64.498 1471.092,62.084 1471.092,59.466 C1471.092,57.324 1470.7435,55.488 1470.0465,53.958 C1469.3495,52.428 1468.423,51.1275 1467.267,50.0565 C1466.111,48.9855 1464.802,48.0845 1463.34,47.3535 C1461.878,46.6225 1460.382,45.985 1458.852,45.441 C1457.322,44.897 1455.826,44.404 1454.364,43.962 C1452.902,43.52 1451.593,43.0525 1450.437,42.5595 C1449.281,42.0665 1448.3545,41.497 1447.6575,40.851 C1446.9605,40.205 1446.612,39.389 1446.612,38.403 C1446.612,37.043 1447.1475,35.9805 1448.2185,35.2155 C1449.2895,34.4505 1450.828,34.068 1452.834,34.068 C1454.228,34.068 1455.469,34.2295 1456.557,34.5525 C1457.645,34.8755 1458.6225,35.224 1459.4895,35.598 C1460.3565,35.972 1461.164,36.3205 1461.912,36.6435 C1462.66,36.9665 1463.408,37.128 1464.156,37.128 C1464.87,37.128 1465.4565,36.992 1465.9155,36.72 C1466.3745,36.448 1466.808,35.989 1467.216,35.343 L1467.216,35.343 L1470.786,29.784 C1469.8,28.798 1468.661,27.8885 1467.369,27.0555 C1466.077,26.2225 1464.649,25.5 1463.085,24.888 C1461.521,24.276 1459.8465,23.8 1458.0615,23.46 C1456.2765,23.12 1454.432,22.95 1452.528,22.95 C1449.026,22.95 1445.966,23.4005 1443.348,24.3015 C1440.73,25.2025 1438.554,26.418 1436.82,27.948 C1435.086,29.478 1433.7855,31.2545 1432.9185,33.2775 C1432.0515,35.3005 1431.618,37.434 1431.618,39.678 C1431.618,42.092 1431.975,44.149 1432.689,45.849 C1433.403,47.549 1434.338,48.9855 1435.494,50.1585 C1436.65,51.3315 1437.9675,52.3005 1439.4465,53.0655 C1440.9255,53.8305 1442.43,54.485 1443.96,55.029 C1445.49,55.573 1446.9945,56.0575 1448.4735,56.4825 C1449.9525,56.9075 1451.27,57.3665 1452.426,57.8595 C1453.582,58.3525 1454.517,58.939 1455.231,59.619 C1455.945,60.299 1456.302,61.166 1456.302,62.22 C1456.302,62.798 1456.183,63.359 1455.945,63.903 C1455.707,64.447 1455.333,64.94 1454.823,65.382 C1454.313,65.824 1453.633,66.1725 1452.783,66.4275 C1451.933,66.6825 1450.896,66.81 1449.672,66.81 C1447.938,66.81 1446.5015,66.606 1445.3625,66.198 C1444.2235,65.79 1443.229,65.348 1442.379,64.872 C1441.529,64.396 1440.7385,63.954 1440.0075,63.546 C1439.2765,63.138 1438.452,62.934 1437.534,62.934 C1436.548,62.934 1435.7405,63.1295 1435.1115,63.5205 C1434.4825,63.9115 1433.964,64.447 1433.556,65.127 L1433.556,65.127 L1429.884,70.941 C1430.904,71.859 1432.128,72.7175 1433.556,73.5165 C1434.984,74.3155 1436.5395,75.004 1438.2225,75.582 C1439.9055,76.16 1441.648,76.619 1443.45,76.959 C1445.252,77.299 1447.054,77.469 1448.856,77.469 Z M1500.069,77.469 C1502.789,77.469 1505.424,77.0865 1507.974,76.3215 C1510.524,75.5565 1512.819,74.409 1514.859,72.879 L1514.859,72.879 L1510.065,65.382 C1509.759,64.906 1509.4615,64.5575 1509.1725,64.3365 C1508.8835,64.1155 1508.501,64.005 1508.025,64.005 C1507.685,64.005 1507.3875,64.0645 1507.1325,64.1835 C1506.8775,64.3025 1506.6055,64.4385 1506.3165,64.5915 C1506.0275,64.7445 1505.6875,64.8805 1505.2965,64.9995 C1504.9055,65.1185 1504.421,65.178 1503.843,65.178 C1502.721,65.178 1501.8625,64.7785 1501.2675,63.9795 C1500.6725,63.1805 1500.375,62.169 1500.375,60.945 L1500.375,60.945 L1500.375,34.68 L1513.482,34.68 L1513.482,23.868 L1500.375,23.868 L1500.375,8.415 L1492.113,8.415 C1490.209,8.415 1489.053,9.231 1488.645,10.863 L1488.645,10.863 L1485.534,23.766 L1477.119,25.398 L1477.119,31.569 C1477.119,32.589 1477.408,33.3625 1477.986,33.8895 C1478.564,34.4165 1479.261,34.68 1480.077,34.68 L1480.077,34.68 L1484.565,34.68 L1484.565,62.016 C1484.565,64.362 1484.905,66.487 1485.585,68.391 C1486.265,70.295 1487.2595,71.9185 1488.5685,73.2615 C1489.8775,74.6045 1491.4925,75.6415 1493.4135,76.3725 C1495.3345,77.1035 1497.553,77.469 1500.069,77.469 Z" id="To-DoList" fill="#2A3541"></path>
        </g>
        <path d="M203.297189,102 C217.492459,102 229,113.507541 229,127.702811 L229,204.297189 C229,218.492459 217.492459,230 203.297189,230 L126.702811,230 C112.507541,230 101,218.492459 101,204.297189 L101,127.702811 C101,113.507541 112.507541,102 126.702811,102 L203.297189,102 Z M201.300278,110.481928 L128.699722,110.481928 L128.387585,110.484411 C118.209471,110.646487 109.953453,118.721068 109.501424,128.826258 L109.490121,129.133091 L109.481928,129.699722 L109.481928,202.300278 L109.484411,202.612415 C109.646487,212.790529 117.721068,221.046547 127.826258,221.498576 L128.133091,221.509879 L128.699722,221.518072 L201.300278,221.518072 L201.612415,221.515589 C211.790529,221.353513 220.046547,213.278932 220.498576,203.173742 L220.509879,202.866909 L220.518072,202.300278 L220.518072,129.699722 L220.515589,129.387585 C220.353513,119.209471 212.278932,110.953453 202.173742,110.501424 L201.866909,110.490121 L201.300278,110.481928 Z M201.285664,116.907631 L201.765784,116.916464 C208.547771,117.166423 213.98271,122.690011 214.090731,129.507357 L214.092369,129.714336 L214.092369,202.285664 L214.083536,202.765784 C213.833577,209.547771 208.309989,214.98271 201.492643,215.090731 L201.285664,215.092369 L128.714336,215.092369 L128.234216,215.083536 C121.452229,214.833577 116.01729,209.309989 115.909269,202.492643 L115.907631,202.285664 L115.907631,129.714336 L115.916464,129.234216 C116.166423,122.452229 121.690011,117.01729 128.507357,116.909269 L128.714336,116.907631 L201.285664,116.907631 Z M152.561779,189.903614 C151.465288,189.903614 150.467849,190.072642 149.569463,190.410698 C148.671077,190.748754 147.897083,191.232996 147.24748,191.863424 C146.597878,192.493852 146.095704,193.259046 145.740956,194.159005 C145.386209,195.058964 145.208835,196.070847 145.208835,197.194653 C145.208835,198.327597 145.386209,199.348616 145.740956,200.257712 C146.095704,201.166808 146.597878,201.938854 147.24748,202.57385 C147.897083,203.208847 148.671077,203.697657 149.569463,204.040281 C150.467849,204.382905 151.465288,204.554217 152.561779,204.554217 C153.649057,204.554217 154.639585,204.382905 155.533364,204.040281 C156.427143,203.697657 157.194226,203.208847 157.834614,202.57385 C158.475002,201.938854 158.97257,201.166808 159.327317,200.257712 C159.682064,199.348616 159.859438,198.327597 159.859438,197.194653 C159.859438,196.070847 159.682064,195.058964 159.327317,194.159005 C158.97257,193.259046 158.475002,192.493852 157.834614,191.863424 C157.194226,191.232996 156.427143,190.748754 155.533364,190.410698 C154.639585,190.072642 153.649057,189.903614 152.561779,189.903614 Z M189.584392,186.048193 L187.333659,186.048193 C186.835719,186.048193 186.525574,186.249731 186.403223,186.652807 L186.388907,186.704241 L185.541409,190.162161 L183.248996,190.599527 L183.248996,192.253315 C183.248996,192.526668 183.327725,192.733961 183.485184,192.875194 C183.628328,193.003587 183.798264,193.073619 183.994992,193.085292 L184.054814,193.087042 L185.277434,193.087042 L185.277434,200.412913 C185.277434,201.041626 185.370057,201.611112 185.555302,202.121372 C185.740548,202.631631 186.011469,203.066719 186.368067,203.426634 C186.724664,203.786549 187.164622,204.064459 187.687941,204.260362 C188.211259,204.456265 188.815623,204.554217 189.501031,204.554217 C190.242013,204.554217 190.959839,204.451709 191.65451,204.246694 C192.302869,204.055347 192.890715,203.774704 193.418047,203.404766 L193.53012,203.324127 L192.22414,201.314979 C192.140779,201.187414 192.059734,201.094019 191.981005,201.034792 C191.902276,200.975565 191.798075,200.945952 191.668403,200.945952 C191.575781,200.945952 191.494736,200.961898 191.425269,200.993789 C191.355802,201.02568 191.281703,201.062127 191.202974,201.10313 C191.124245,201.144133 191.031622,201.180581 190.925106,201.212472 C190.81859,201.244363 190.686602,201.260309 190.529144,201.260309 C190.223489,201.260309 189.989616,201.153245 189.827526,200.939118 C189.677905,200.741463 189.59734,200.495283 189.58583,200.200579 L189.584392,200.125892 L189.584392,193.087042 L193.154998,193.087042 L193.154998,190.189497 L189.584392,190.189497 L189.584392,186.048193 Z M196.742972,199.927711 C196.391505,199.927711 196.067786,199.988586 195.771815,200.110336 C195.475843,200.232086 195.21918,200.396674 195.001825,200.604101 C194.784471,200.811527 194.613363,201.055027 194.488499,201.334602 C194.363636,201.614176 194.301205,201.916297 194.301205,202.240964 C194.301205,202.565631 194.363636,202.870006 194.488499,203.15409 C194.613363,203.438174 194.784471,203.683929 195.001825,203.891355 C195.21918,204.098781 195.475843,204.261115 195.771815,204.378356 C196.067786,204.495596 196.391505,204.554217 196.742972,204.554217 C197.085189,204.554217 197.404284,204.495596 197.700256,204.378356 C197.996227,204.261115 198.255203,204.098781 198.477181,203.891355 C198.69916,203.683929 198.872581,203.438174 198.997444,203.15409 C199.122307,202.870006 199.184739,202.565631 199.184739,202.240964 C199.184739,201.916297 199.122307,201.614176 198.997444,201.334602 C198.872581,201.055027 198.69916,200.811527 198.477181,200.604101 C198.255203,200.396674 197.996227,200.232086 197.700256,200.110336 C197.404284,199.988586 197.085189,199.927711 196.742972,199.927711 Z M133.230781,184.248996 L125.417671,184.248996 L125.417671,204.297189 L133.230781,204.297189 C134.795244,204.297189 136.219365,204.047217 137.503144,203.547274 C138.786924,203.04733 139.884348,202.350161 140.795418,201.455767 C141.706487,200.561372 142.412796,199.501859 142.914344,198.277227 C143.415893,197.052595 143.666667,195.71559 143.666667,194.266212 C143.666667,192.826008 143.415893,191.49359 142.914344,190.268958 C142.412796,189.044326 141.706487,187.987106 140.795418,187.097298 C139.884348,186.20749 138.786924,185.510321 137.503144,185.005791 C136.272855,184.522283 134.913677,184.270456 133.425608,184.25031 L133.230781,184.248996 Z M170.372434,189.903614 C169.907596,189.903614 169.477621,189.9469 169.082509,190.033471 C168.687396,190.120042 168.320174,190.238508 167.980843,190.388868 C167.641511,190.539228 167.323097,190.723761 167.0256,190.942467 C166.787603,191.117432 166.555556,191.30406 166.329459,191.502354 L166.161001,191.653261 L165.909989,190.833114 C165.749341,190.378206 165.417335,190.141654 164.913971,190.123458 L164.850158,190.12232 L162.172691,190.12232 L162.172691,204.297189 L166.495685,204.297189 L166.495685,194.182046 C166.886149,193.844875 167.288234,193.578327 167.70194,193.382403 C168.115646,193.186479 168.559566,193.088517 169.033701,193.088517 C169.665881,193.088517 170.144664,193.282163 170.47005,193.669455 C170.779168,194.037382 170.941454,194.543065 170.95691,195.186504 L170.95813,195.289244 L170.95813,204.297189 L175.281124,204.297189 L175.281124,195.289244 C175.281124,194.514661 175.174212,193.797033 174.960386,193.136359 C174.746561,192.475686 174.430471,191.906139 174.012117,191.42772 C173.593762,190.949301 173.080116,190.575679 172.471178,190.306853 C171.86224,190.038027 171.162659,189.903614 170.372434,189.903614 Z M152.562287,192.987952 C153.566329,192.987952 154.305285,193.336143 154.779155,194.032524 C155.253025,194.728906 155.48996,195.792048 155.48996,197.221952 C155.48996,198.651855 155.253025,199.717319 154.779155,200.418343 C154.305285,201.119367 153.566329,201.46988 152.562287,201.46988 C151.530095,201.46988 150.774718,201.119367 150.296156,200.418343 C149.817594,199.717319 149.578313,198.651855 149.578313,197.221952 C149.578313,195.792048 149.817594,194.728906 150.296156,194.032524 C150.774718,193.336143 151.530095,192.987952 152.562287,192.987952 Z M133.149529,187.84739 C134.038081,187.84739 134.83045,187.995974 135.526635,188.293143 C136.22282,188.590311 136.811371,189.015491 137.292289,189.568682 C137.773206,190.121873 138.141909,190.796218 138.398399,191.591716 C138.654888,192.387214 138.783133,193.27872 138.783133,194.266235 C138.783133,195.262893 138.654888,196.158971 138.398399,196.954469 C138.141909,197.749967 137.773206,198.424311 137.292289,198.977502 C136.811371,199.530693 136.22282,199.955873 135.526635,200.253042 C134.83045,200.550211 134.038081,200.698795 133.149529,200.698795 L130.044177,200.698795 L130.044177,187.84739 L133.149529,187.84739 Z M180.803876,182.963855 L178.209687,183.91253 C177.930742,184.013355 177.742454,184.178342 177.644823,184.40749 C177.547192,184.636639 177.600657,184.911617 177.805216,185.232424 C178.056267,185.617394 178.237581,185.995489 178.349159,186.366709 C178.460737,186.737929 178.525825,187.095401 178.544421,187.439124 C178.563017,187.782846 178.542096,188.108237 178.481658,188.415296 C178.42122,188.722354 178.339861,189.004207 178.237581,189.260853 C178.135301,189.517499 178.023723,189.742065 177.902847,189.934549 C177.781971,190.127034 177.670393,190.278272 177.568113,190.388263 C177.503026,190.452425 177.449561,190.528044 177.40772,190.61512 C177.365878,190.702197 177.342632,190.793856 177.337983,190.890098 C177.333334,190.986341 177.354255,191.082583 177.400746,191.178825 C177.441425,191.263037 177.510581,191.334968 177.608211,191.394619 L177.651797,191.419431 L179.018627,192.216867 C179.808972,191.611916 180.441247,190.938219 180.915454,190.195779 C181.389661,189.453338 181.703474,188.676525 181.856894,187.86534 C182.010314,187.054154 181.998691,186.231511 181.822026,185.397411 C181.655752,184.612376 181.345342,183.847639 180.890793,183.1032 L180.803876,182.963855 Z" id="Shape-Copy" fill="#EC313C"></path>
    </g>
</svg>