<?xml version="1.0" encoding="UTF-8"?>
<svg width="1915px" height="333px" viewBox="0 0 1915 333" version="1.1" xmlns="http://www.w3.org/2000/svg" xmlns:xlink="http://www.w3.org/1999/xlink">
    <!-- Generator: Sketch 61.2 (89653) - https://sketch.com -->
    <title>logo</title>
    <desc>Created with Sketch.</desc>
    <g id="logo" stroke="none" stroke-width="1" fill="none" fill-rule="evenodd">
        <text id="The-Least-Dangerous" font-family="Lato-Black, Lato" font-size="102" font-weight="700" line-spacing="128" letter-spacing="2.1">
            <tspan x="279" y="203" fill="#2A3541">The Least </tspan>
            <tspan x="765.681" y="203" fill="#EC313C">Dangerous</tspan>
            <tspan x="1281.372" y="203" fill="#2A3541"> To-Do List</tspan>
        </text>
        <path d="M203.297189,102 C217.492459,102 229,113.507541 229,127.702811 L229,204.297189 C229,218.492459 217.492459,230 203.297189,230 L126.702811,230 C112.507541,230 101,218.492459 101,204.297189 L101,127.702811 C101,113.507541 112.507541,102 126.702811,102 L203.297189,102 Z M201.300278,110.481928 L128.699722,110.481928 L128.387585,110.484411 C118.209471,110.646487 109.953453,118.721068 109.501424,128.826258 L109.490121,129.133091 L109.481928,129.699722 L109.481928,202.300278 L109.484411,202.612415 C109.646487,212.790529 117.721068,221.046547 127.826258,221.498576 L128.133091,221.509879 L128.699722,221.518072 L201.300278,221.518072 L201.612415,221.515589 C211.790529,221.353513 220.046547,213.278932 220.498576,203.173742 L220.509879,202.866909 L220.518072,202.300278 L220.518072,129.699722 L220.515589,129.387585 C220.353513,119.209471 212.278932,110.953453 202.173742,110.501424 L201.866909,110.490121 L201.300278,110.481928 Z M201.285664,116.907631 L201.765784,116.916464 C208.547771,117.166423 213.98271,122.690011 214.090731,129.507357 L214.092369,129.714336 L214.092369,202.285664 L214.083536,202.765784 C213.833577,209.547771 208.309989,214.98271 201.492643,215.090731 L201.285664,215.092369 L128.714336,215.092369 L128.234216,215.083536 C121.452229,214.833577 116.01729,209.309989 115.909269,202.492643 L115.907631,202.285664 L115.907631,129.714336 L115.916464,129.234216 C116.166423,122.452229 121.690011,117.01729 128.507357,116.909269 L128.714336,116.907631 L201.285664,116.907631 Z M152.561779,189.903614 C151.465288,189.903614 150.467849,190.072642 149.569463,190.410698 C148.671077,190.748754 147.897083,191.232996 147.24748,191.863424 C146.597878,192.493852 146.095704,193.259046 145.740956,194.159005 C145.386209,195.058964 145.208835,196.070847 145.208835,197.194653 C145.208835,198.327597 145.386209,199.348616 145.740956,200.257712 C146.095704,201.166808 146.597878,201.938854 147.24748,202.57385 C147.897083,203.208847 148.671077,203.697657 149.569463,204.040281 C150.467849,204.382905 151.465288,204.554217 152.561779,204.554217 C153.649057,204.554217 154.639585,204.382905 155.533364,204.040281 C156.427143,203.697657 157.194226,203.208847 157.834614,202.57385 C158.475002,201.938854 158.97257,201.166808 159.327317,200.257712 C159.682064,199.348616 159.859438,198.327597 159.859438,197.194653 C159.859438,196.070847 159.682064,195.058964 159.327317,194.159005 C158.97257,193.259046 158.475002,192.493852 157.834614,191.863424 C157.194226,191.232996 156.427143,190.748754 155.533364,190.410698 C154.639585,190.072642 153.649057,189.903614 152.561779,189.903614 Z M189.584392,186.048193 L187.333659,186.048193 C186.835719,186.048193 186.525574,186.249731 186.403223,186.652807 L186.388907,186.704241 L185.541409,190.162161 L183.248996,190.599527 L183.248996,192.253315 C183.248996,192.526668 183.327725,192.733961 183.485184,192.875194 C183.628328,193.003587 183.798264,193.073619 183.994992,193.085292 L184.054814,193.087042 L185.277434,193.087042 L185.277434,200.412913 C185.277434,201.041626 185.370057,201.611112 185.555302,202.121372 C185.740548,202.631631 186.011469,203.066719 186.368067,203.426634 C186.724664,203.786549 187.164622,204.064459 187.687941,204.260362 C188.211259,204.456265 188.815623,204.554217 189.501031,204.554217 C190.242013,204.554217 190.959839,204.451709 191.65451,204.246694 C192.302869,204.055347 192.890715,203.774704 193.418047,203.404766 L193.53012,203.324127 L192.22414,201.314979 C192.140779,201.187414 192.059734,201.094019 191.981005,201.034792 C191.902276,200.975565 191.798075,200.945952 191.668403,200.945952 C191.575781,200.945952 191.494736,200.961898 191.425269,200.993789 C191.355802,201.02568 191.281703,201.062127 191.202974,201.10313 C191.124245,201.144133 191.031622,201.180581 190.925106,201.212472 C190.81859,201.244363 190.686602,201.260309 190.529144,201.260309 C190.223489,201.260309 189.989616,201.153245 189.827526,200.939118 C189.677905,200.741463 189.59734,200.495283 189.58583,200.200579 L189.584392,200.125892 L189.584392,193.087042 L193.154998,193.087042 L193.154998,190.189497 L189.584392,190.189497 L189.584392,186.048193 Z M196.742972,199.927711 C196.391505,199.927711 196.067786,199.988586 195.771815,200.110336 C195.475843,200.232086 195.21918,200.396674 195.001825,200.604101 C194.784471,200.811527 194.613363,201.055027 194.488499,201.334602 C194.363636,201.614176 194.301205,201.916297 194.301205,202.240964 C194.301205,202.565631 194.363636,202.870006 194.488499,203.15409 C194.613363,203.438174 194.784471,203.683929 195.001825,203.891355 C195.21918,204.098781 195.475843,204.261115 195.771815,204.378356 C196.067786,204.495596 196.391505,204.554217 196.742972,204.554217 C197.085189,204.554217 197.404284,204.495596 197.700256,204.378356 C197.996227,204.261115 198.255203,204.098781 198.477181,203.891355 C198.69916,203.683929 198.872581,203.438174 198.997444,203.15409 C199.122307,202.870006 199.184739,202.565631 199.184739,202.240964 C199.184739,201.916297 199.122307,201.614176 198.997444,201.334602 C198.872581,201.055027 198.69916,200.811527 198.477181,200.604101 C198.255203,200.396674 197.996227,200.232086 197.700256,200.110336 C197.404284,199.988586 197.085189,199.927711 196.742972,199.927711 Z M133.230781,184.248996 L125.417671,184.248996 L125.417671,204.297189 L133.230781,204.297189 C134.795244,204.297189 136.219365,204.047217 137.503144,203.547274 C138.786924,203.04733 139.884348,202.350161 140.795418,201.455767 C141.706487,200.561372 142.412796,199.501859 142.914344,198.277227 C143.415893,197.052595 143.666667,195.71559 143.666667,194.266212 C143.666667,192.826008 143.415893,191.49359 142.914344,190.268958 C142.412796,189.044326 141.706487,187.987106 140.795418,187.097298 C139.884348,186.20749 138.786924,185.510321 137.503144,185.005791 C136.272855,184.522283 134.913677,184.270456 133.425608,184.25031 L133.230781,184.248996 Z M170.372434,189.903614 C169.907596,189.903614 169.477621,189.9469 169.082509,190.033471 C168.687396,190.120042 168.320174,190.238508 167.980843,190.388868 C167.641511,190.539228 167.323097,190.723761 167.0256,190.942467 C166.787603,191.117432 166.555556,191.30406 166.329459,191.502354 L166.161001,191.653261 L165.909989,190.833114 C165.749341,190.378206 165.417335,190.141654 164.913971,190.123458 L164.850158,190.12232 L162.172691,190.12232 L162.172691,204.297189 L166.495685,204.297189 L166.495685,194.182046 C166.886149,193.844875 167.288234,193.578327 167.70194,193.382403 C168.115646,193.186479 168.559566,193.088517 169.033701,193.088517 C169.665881,193.088517 170.144664,193.282163 170.47005,193.669455 C170.779168,194.037382 170.941454,194.543065 170.95691,195.186504 L170.95813,195.289244 L170.95813,204.297189 L175.281124,204.297189 L175.281124,195.289244 C175.281124,194.514661 175.174212,193.797033 174.960386,193.136359 C174.746561,192.475686 174.430471,191.906139 174.012117,191.42772 C173.593762,190.949301 173.080116,190.575679 172.471178,190.306853 C171.86224,190.038027 171.162659,189.903614 170.372434,189.903614 Z M152.562287,192.987952 C153.566329,192.987952 154.305285,193.336143 154.779155,194.032524 C155.253025,194.728906 155.48996,195.792048 155.48996,197.221952 C155.48996,198.651855 155.253025,199.717319 154.779155,200.418343 C154.305285,201.119367 153.566329,201.46988 152.562287,201.46988 C151.530095,201.46988 150.774718,201.119367 150.296156,200.418343 C149.817594,199.717319 149.578313,198.651855 149.578313,197.221952 C149.578313,195.792048 149.817594,194.728906 150.296156,194.032524 C150.774718,193.336143 151.530095,192.987952 152.562287,192.987952 Z M133.149529,187.84739 C134.038081,187.84739 134.83045,187.995974 135.526635,188.293143 C136.22282,188.590311 136.811371,189.015491 137.292289,189.568682 C137.773206,190.121873 138.141909,190.796218 138.398399,191.591716 C138.654888,192.387214 138.783133,193.27872 138.783133,194.266235 C138.783133,195.262893 138.654888,196.158971 138.398399,196.954469 C138.141909,197.749967 137.773206,198.424311 137.292289,198.977502 C136.811371,199.530693 136.22282,199.955873 135.526635,200.253042 C134.83045,200.550211 134.038081,200.698795 133.149529,200.698795 L130.044177,200.698795 L130.044177,187.84739 L133.149529,187.84739 Z M180.803876,182.963855 L178.209687,183.91253 C177.930742,184.013355 177.742454,184.178342 177.644823,184.40749 C177.547192,184.636639 177.600657,184.911617 177.805216,185.232424 C178.056267,185.617394 178.237581,185.995489 178.349159,186.366709 C178.460737,186.737929 178.525825,187.095401 178.544421,187.439124 C178.563017,187.782846 178.542096,188.108237 178.481658,188.415296 C178.42122,188.722354 178.339861,189.004207 178.237581,189.260853 C178.135301,189.517499 178.023723,189.742065 177.902847,189.934549 C177.781971,190.127034 177.670393,190.278272 177.568113,190.388263 C177.503026,190.452425 177.449561,190.528044 177.40772,190.61512 C177.365878,190.702197 177.342632,190.793856 177.337983,190.890098 C177.333334,190.986341 177.354255,191.082583 177.400746,191.178825 C177.441425,191.263037 177.510581,191.334968 177.608211,191.394619 L177.651797,191.419431 L179.018627,192.216867 C179.808972,191.611916 180.441247,190.938219 180.915454,190.195779 C181.389661,189.453338 181.703474,188.676525 181.856894,187.86534 C182.010314,187.054154 181.998691,186.231511 181.822026,185.397411 C181.655752,184.612376 181.345342,183.847639 180.890793,183.1032 L180.803876,182.963855 Z" id="Shape-Copy" fill="#EC313C"></path>
    </g>
</svg>