<?xml version="1.0" encoding="UTF-8"?>
<svg width="1100px" height="532px" viewBox="0 0 1100 532" version="1.1" xmlns="http://www.w3.org/2000/svg" xmlns:xlink="http://www.w3.org/1999/xlink">
    <!-- Generator: Sketch 61.2 (89653) - https://sketch.com -->
    <title>logo1</title>
    <desc>Created with Sketch.</desc>
    <g id="logo1" stroke="none" stroke-width="1" fill="none" fill-rule="evenodd">
        <text id="The-Least-Dangerous" font-family="Lato-Black, Lato" font-size="102" font-weight="700" line-spacing="128" letter-spacing="2.1">
            <tspan x="478" y="174" fill="#2A3541">The Least</tspan>
            <tspan x="478" y="302" fill="#EC313C">Dangerous</tspan>
            <tspan x="993.691" y="302" fill="#2A3541"></tspan>
            <tspan x="478" y="430" fill="#2A3541">To-Do List</tspan>
        </text>
        <path d="M364.73494,102 C401.332122,102 431,131.667878 431,168.26506 L431,365.73494 C431,402.332122 401.332122,432 364.73494,432 L167.26506,432 C130.667878,432 101,402.332122 101,365.73494 L101,168.26506 C101,131.667878 130.667878,102 167.26506,102 L364.73494,102 Z M359.5,124 L172.5,124 L171.696017,124.006397 C145.479864,124.423861 124.214524,145.221864 123.050218,171.250185 L123.021104,172.040508 L123,173.5 L123,360.5 L123.006397,361.303983 C123.423861,387.520136 144.221864,408.785476 170.250185,409.949782 L171.040508,409.978896 L172.5,410 L359.5,410 L360.303983,409.993603 C386.520136,409.576139 407.785476,388.778136 408.949782,362.749815 L408.978896,361.959492 L409,360.5 L409,173.5 L408.993603,172.696017 C408.576139,146.479864 387.778136,125.214524 361.749815,124.050218 L360.959492,124.021104 L359.5,124 Z M360,140 L361.23716,140.022762 C378.712816,140.666849 392.717433,154.899894 392.995777,172.466664 L393,173 L393,360 L392.977238,361.23716 C392.333151,378.712816 378.100106,392.717433 360.533336,392.995777 L360,393 L173,393 L171.76284,392.977238 C154.287184,392.333151 140.282567,378.100106 140.004223,360.533336 L140,360 L140,173 L140.022762,171.76284 C140.666849,154.287184 154.899894,140.282567 172.466664,140.004223 L173,140 L360,140 Z M234.071698,329 C231.227673,329 228.640566,329.438416 226.310377,330.315248 C223.980189,331.19208 221.972642,332.448082 220.287736,334.083255 C218.60283,335.718428 217.300314,337.703149 216.380189,340.037418 C215.460063,342.371687 215,344.996258 215,347.911132 C215,350.849704 215.460063,353.497973 216.380189,355.85594 C217.300314,358.213907 218.60283,360.216402 220.287736,361.863424 C221.972642,363.510446 223.980189,364.778297 226.310377,365.666978 C228.640566,366.555659 231.227673,367 234.071698,367 C236.891824,367 239.461006,366.555659 241.779245,365.666978 C244.097484,364.778297 246.087107,363.510446 247.748113,361.863424 C249.409119,360.216402 250.699686,358.213907 251.619811,355.85594 C252.539937,353.497973 253,350.849704 253,347.911132 C253,344.996258 252.539937,342.371687 251.619811,340.037418 C250.699686,337.703149 249.409119,335.718428 247.748113,334.083255 C246.087107,332.448082 244.097484,331.19208 241.779245,330.315248 C239.461006,329.438416 236.891824,329 234.071698,329 Z M329.637838,319 L323.727027,319 C322.419351,319 321.604856,319.522739 321.283542,320.568217 L321.245946,320.701625 L319.02027,329.670606 L313,330.805022 L313,335.094535 C313,335.803545 313.206757,336.341211 313.62027,336.707533 C313.996192,337.040553 314.442473,337.222201 314.959113,337.252475 L315.116216,337.257016 L318.327027,337.257016 L318.327027,356.258493 C318.327027,357.889217 318.57027,359.366322 319.056757,360.689808 C319.543243,362.013294 320.25473,363.141802 321.191216,364.075332 C322.127703,365.008863 323.283108,365.72969 324.657432,366.237814 C326.031757,366.745938 327.618919,367 329.418919,367 C331.364865,367 333.25,366.734121 335.074324,366.202363 C336.777027,365.706056 338.320811,364.978139 339.705676,364.018612 L340,363.809453 L336.57027,358.598227 C336.351351,358.267356 336.138514,358.025111 335.931757,357.871492 C335.725,357.717873 335.451351,357.641064 335.110811,357.641064 C334.867568,357.641064 334.65473,357.682422 334.472297,357.76514 C334.289865,357.847858 334.09527,357.942393 333.888514,358.048744 C333.681757,358.155096 333.438514,358.249631 333.158784,358.332349 C332.879054,358.415066 332.532432,358.456425 332.118919,358.456425 C331.316216,358.456425 330.702027,358.17873 330.276351,357.623338 C329.88342,357.110669 329.671842,356.47214 329.641616,355.707752 L329.637838,355.514032 L329.637838,337.257016 L339.014865,337.257016 L339.014865,329.741507 L329.637838,329.741507 L329.637838,319 Z M347.5,354 C346.564394,354 345.702652,354.157895 344.914773,354.473684 C344.126894,354.789474 343.443655,355.216374 342.865057,355.754386 C342.286458,356.292398 341.830966,356.923977 341.49858,357.649123 C341.166193,358.374269 341,359.157895 341,360 C341,360.842105 341.166193,361.631579 341.49858,362.368421 C341.830966,363.105263 342.286458,363.74269 342.865057,364.280702 C343.443655,364.818713 344.126894,365.239766 344.914773,365.54386 C345.702652,365.847953 346.564394,366 347.5,366 C348.410985,366 349.260417,365.847953 350.048295,365.54386 C350.836174,365.239766 351.525568,364.818713 352.116477,364.280702 C352.707386,363.74269 353.169034,363.105263 353.50142,362.368421 C353.833807,361.631579 354,360.842105 354,360 C354,359.157895 353.833807,358.374269 353.50142,357.649123 C353.169034,356.923977 352.707386,356.292398 352.116477,355.754386 C351.525568,355.216374 350.836174,354.789474 350.048295,354.473684 C349.260417,354.157895 348.410985,354 347.5,354 Z M184.122542,314 L164,314 L164,366 L184.122542,366 C188.15179,366 191.819592,365.351636 195.125946,364.054907 C198.4323,362.758179 201.258699,360.949897 203.605144,358.630062 C205.951589,356.310226 207.770676,353.562114 209.062405,350.385724 C210.354135,347.209334 211,343.741478 211,339.982155 C211,336.246625 210.354135,332.790666 209.062405,329.614276 C207.770676,326.437886 205.951589,323.695722 203.605144,321.387783 C201.258699,319.079844 198.4323,317.271563 195.125946,315.962938 C191.957356,314.708839 188.456813,314.055662 184.624315,314.003408 L184.122542,314 Z M280.268085,329 C279.062411,329 277.947163,329.111269 276.92234,329.333808 C275.897518,329.556347 274.945035,329.860874 274.064894,330.247388 C273.184752,330.633903 272.358865,331.108262 271.587234,331.670465 C270.969929,332.120228 270.368057,332.599975 269.781617,333.109706 L269.344681,333.497626 L268.693617,331.389364 C268.276936,330.219981 267.415796,329.611902 266.110196,329.565127 L265.944681,329.562203 L259,329.562203 L259,366 L270.212766,366 L270.212766,339.998101 C271.225532,339.131371 272.26844,338.446186 273.341489,337.942545 C274.414539,337.438905 275.565957,337.187085 276.795745,337.187085 C278.435461,337.187085 279.677305,337.684869 280.521277,338.680437 C281.32305,339.626227 281.74398,340.926131 281.784069,342.580151 L281.787234,342.844255 L281.787234,366 L293,366 L293,342.844255 C293,340.853118 292.722695,339.008389 292.168085,337.310066 C291.613475,335.611744 290.793617,334.147673 289.708511,332.917854 C288.623404,331.688034 287.291135,330.727604 285.711702,330.036562 C284.13227,329.345521 282.31773,329 280.268085,329 Z M233.571429,337 C236.119048,337 237.994048,337.90312 239.196429,339.70936 C240.39881,341.515599 241,344.273125 241,347.981938 C241,351.69075 240.39881,354.454297 239.196429,356.272578 C237.994048,358.090859 236.119048,359 233.571429,359 C230.952381,359 229.035714,358.090859 227.821429,356.272578 C226.607143,354.454297 226,351.69075 226,347.981938 C226,344.273125 226.607143,341.515599 227.821429,339.70936 C229.035714,337.90312 230.952381,337 233.571429,337 Z M184.172956,323 C186.51153,323 188.59696,323.381537 190.429245,324.14461 C192.26153,324.907684 193.810535,325.999466 195.076258,327.419957 C196.341981,328.840448 197.312369,330.572038 197.987421,332.614728 C198.662474,334.657417 199,336.946638 199,339.482391 C199,342.041622 198.662474,344.342583 197.987421,346.385272 C197.312369,348.427962 196.341981,350.159552 195.076258,351.580043 C193.810535,353.000534 192.26153,354.092316 190.429245,354.85539 C188.59696,355.618463 186.51153,356 184.172956,356 L176,356 L176,323 L184.172956,323 Z M306.991303,311 L300.262625,313.460624 C299.539111,313.72214 299.050739,314.150074 298.79751,314.744428 C298.54428,315.338782 298.682953,316.052006 299.21353,316.884101 C299.864692,317.882615 300.334976,318.863299 300.624382,319.826152 C300.913787,320.789004 301.082607,321.716196 301.130842,322.607727 C301.179076,323.499257 301.124812,324.343239 300.968051,325.139673 C300.81129,325.936107 300.600265,326.667162 300.334976,327.332838 C300.069688,327.998514 299.780282,328.580981 299.46676,329.080238 C299.153237,329.579495 298.863832,329.971768 298.598543,330.257058 C298.429723,330.423477 298.29105,330.619614 298.182523,330.845468 C298.073996,331.071322 298.013703,331.309064 298.001644,331.558692 C297.989586,331.808321 298.043849,332.057949 298.164435,332.307578 C298.269947,332.526003 298.449319,332.712574 298.702548,332.867292 L298.815597,332.931649 L302.360815,335 C304.410771,333.430906 306.050736,331.683507 307.280709,329.757801 C308.510682,327.832095 309.324636,325.817236 309.722568,323.713224 C310.120501,321.609212 310.090354,319.475483 309.632129,317.312036 C309.200858,315.27585 308.39573,313.292313 307.216744,311.361425 L306.991303,311 Z" id="Shape" fill="#EC313C"></path>
    </g>
</svg>