<?xml version="1.0" encoding="UTF-8"?>
<svg width="1100px" height="532px" viewBox="0 0 1100 532" version="1.1" xmlns="http://www.w3.org/2000/svg" xmlns:xlink="http://www.w3.org/1999/xlink">
    <!-- Generator: Sketch 61.2 (89653) - https://sketch.com -->
    <title>logo1</title>
    <desc>Created with Sketch.</desc>
    <g id="logo1" stroke="none" stroke-width="1" fill="none" fill-rule="evenodd">
        <g id="The-Least-Dangerous" transform="translate(479.530000, 99.653000)" fill-rule="nonzero">
            <path d="M38.148,76.347 L38.148,15.708 L59.058,15.708 L59.058,2.04 L1.13686838e-13,2.04 L1.13686838e-13,15.708 L20.91,15.708 L20.91,76.347 L38.148,76.347 Z M82.935,76.347 L82.935,38.607 C84.363,37.349 85.8335,36.3545 87.3465,35.6235 C88.8595,34.8925 90.483,34.527 92.217,34.527 C94.529,34.527 96.28,35.2495 97.47,36.6945 C98.66,38.1395 99.255,40.154 99.255,42.738 L99.255,42.738 L99.255,76.347 L115.065,76.347 L115.065,42.738 C115.065,39.848 114.674,37.1705 113.892,34.7055 C113.11,32.2405 111.954,30.1155 110.424,28.3305 C108.894,26.5455 107.0155,25.1515 104.7885,24.1485 C102.5615,23.1455 100.003,22.644 97.113,22.644 C94.019,22.644 91.3585,23.1455 89.1315,24.1485 C86.9045,25.1515 84.839,26.469 82.935,28.101 L82.935,28.101 L82.935,-6.53699317e-13 L67.125,-6.53699317e-13 L67.125,76.347 L82.935,76.347 Z M151.386,77.163 C153.188,77.163 155.0835,77.0355 157.0725,76.7805 C159.0615,76.5255 161.0505,76.0665 163.0395,75.4035 C165.0285,74.7405 166.9665,73.8225 168.8535,72.6495 C170.7405,71.4765 172.5,69.955 174.132,68.085 L174.132,68.085 L169.542,62.424 C168.896,61.506 167.944,61.047 166.686,61.047 C165.734,61.047 164.8245,61.268 163.9575,61.71 C163.0905,62.152 162.1385,62.645 161.1015,63.189 C160.0645,63.733 158.883,64.226 157.557,64.668 C156.231,65.11 154.65,65.331 152.814,65.331 C149.38,65.331 146.575,64.3365 144.399,62.3475 C142.223,60.3585 140.88,57.154 140.37,52.734 L140.37,52.734 L170.868,52.734 C171.582,52.734 172.1685,52.649 172.6275,52.479 C173.0865,52.309 173.452,52.003 173.724,51.561 C173.996,51.119 174.183,50.524 174.285,49.776 C174.387,49.028 174.438,48.059 174.438,46.869 C174.438,43.061 173.8515,39.6525 172.6785,36.6435 C171.5055,33.6345 169.8735,31.093 167.7825,29.019 C165.6915,26.945 163.1925,25.364 160.2855,24.276 C157.3785,23.188 154.174,22.644 150.672,22.644 C146.626,22.644 142.9965,23.341 139.7835,24.735 C136.5705,26.129 133.8335,28.016 131.5725,30.396 C129.3115,32.776 127.5775,35.547 126.3705,38.709 C125.1635,41.871 124.56,45.22 124.56,48.756 C124.56,53.448 125.2655,57.562 126.6765,61.098 C128.0875,64.634 130.0085,67.592 132.4395,69.972 C134.8705,72.352 137.7095,74.1455 140.9565,75.3525 C144.2035,76.5595 147.68,77.163 151.386,77.163 Z M160.26,43.554 L140.574,43.554 C141.118,40.324 142.24,37.8505 143.94,36.1335 C145.64,34.4165 147.986,33.558 150.978,33.558 C152.678,33.558 154.123,33.847 155.313,34.425 C156.503,35.003 157.4635,35.7595 158.1945,36.6945 C158.9255,37.6295 159.4525,38.692 159.7755,39.882 C160.0985,41.072 160.26,42.296 160.26,43.554 L160.26,43.554 Z M256.719,76.347 L256.719,62.577 L229.179,62.577 L229.179,2.04 L211.941,2.04 L211.941,76.347 L256.719,76.347 Z M288.093,77.163 C289.895,77.163 291.7905,77.0355 293.7795,76.7805 C295.7685,76.5255 297.7575,76.0665 299.7465,75.4035 C301.7355,74.7405 303.6735,73.8225 305.5605,72.6495 C307.4475,71.4765 309.207,69.955 310.839,68.085 L310.839,68.085 L306.249,62.424 C305.603,61.506 304.651,61.047 303.393,61.047 C302.441,61.047 301.5315,61.268 300.6645,61.71 C299.7975,62.152 298.8455,62.645 297.8085,63.189 C296.7715,63.733 295.59,64.226 294.264,64.668 C292.938,65.11 291.357,65.331 289.521,65.331 C286.087,65.331 283.282,64.3365 281.106,62.3475 C278.93,60.3585 277.587,57.154 277.077,52.734 L277.077,52.734 L307.575,52.734 C308.289,52.734 308.8755,52.649 309.3345,52.479 C309.7935,52.309 310.159,52.003 310.431,51.561 C310.703,51.119 310.89,50.524 310.992,49.776 C311.094,49.028 311.145,48.059 311.145,46.869 C311.145,43.061 310.5585,39.6525 309.3855,36.6435 C308.2125,33.6345 306.5805,31.093 304.4895,29.019 C302.3985,26.945 299.8995,25.364 296.9925,24.276 C294.0855,23.188 290.881,22.644 287.379,22.644 C283.333,22.644 279.7035,23.341 276.4905,24.735 C273.2775,26.129 270.5405,28.016 268.2795,30.396 C266.0185,32.776 264.2845,35.547 263.0775,38.709 C261.8705,41.871 261.267,45.22 261.267,48.756 C261.267,53.448 261.9725,57.562 263.3835,61.098 C264.7945,64.634 266.7155,67.592 269.1465,69.972 C271.5775,72.352 274.4165,74.1455 277.6635,75.3525 C280.9105,76.5595 284.387,77.163 288.093,77.163 Z M296.967,43.554 L277.281,43.554 C277.825,40.324 278.947,37.8505 280.647,36.1335 C282.347,34.4165 284.693,33.558 287.685,33.558 C289.385,33.558 290.83,33.847 292.02,34.425 C293.21,35.003 294.1705,35.7595 294.9015,36.6945 C295.6325,37.6295 296.1595,38.692 296.4825,39.882 C296.8055,41.072 296.967,42.296 296.967,43.554 L296.967,43.554 Z M333.441,77.163 C335.243,77.163 336.8835,77.0185 338.3625,76.7295 C339.8415,76.4405 341.2355,75.9985 342.5445,75.4035 C343.8535,74.8085 345.12,74.086 346.344,73.236 C347.568,72.386 348.843,71.4 350.169,70.278 L350.169,70.278 L351.291,73.185 C351.801,74.477 352.4385,75.327 353.2035,75.735 C353.9685,76.143 355.099,76.347 356.595,76.347 L356.595,76.347 L363.837,76.347 L363.837,43.299 C363.837,40.273 363.361,37.485 362.409,34.935 C361.457,32.385 360.0885,30.1835 358.3035,28.3305 C356.5185,26.4775 354.3425,25.0325 351.7755,23.9955 C349.2085,22.9585 346.327,22.44 343.131,22.44 C338.677,22.44 334.5035,23.1285 330.6105,24.5055 C326.7175,25.8825 323.173,27.982 319.977,30.804 L319.977,30.804 L322.833,35.751 C323.309,36.499 323.921,37.145 324.669,37.689 C325.417,38.233 326.335,38.505 327.423,38.505 C328.647,38.505 329.701,38.301 330.585,37.893 C331.469,37.485 332.3785,37.026 333.3135,36.516 C334.2485,36.006 335.311,35.547 336.501,35.139 C337.691,34.731 339.221,34.527 341.091,34.527 C343.437,34.527 345.2475,35.2155 346.5225,36.5925 C347.7975,37.9695 348.435,40.205 348.435,43.299 L348.435,43.299 L348.435,45.543 C342.383,45.679 337.368,46.291 333.39,47.379 C329.412,48.467 326.25,49.8185 323.904,51.4335 C321.558,53.0485 319.909,54.8335 318.957,56.7885 C318.005,58.7435 317.529,60.673 317.529,62.577 C317.529,64.957 317.903,67.0565 318.651,68.8755 C319.399,70.6945 320.4615,72.216 321.8385,73.44 C323.2155,74.664 324.89,75.5905 326.862,76.2195 C328.834,76.8485 331.027,77.163 333.441,77.163 Z M338.439,66.708 C336.535,66.708 335.09,66.3425 334.104,65.6115 C333.118,64.8805 332.625,63.614 332.625,61.812 C332.625,60.894 332.8545,60.044 333.3135,59.262 C333.7725,58.48 334.597,57.783 335.787,57.171 C336.977,56.559 338.592,56.049 340.632,55.641 C342.672,55.233 345.273,54.961 348.435,54.825 L348.435,54.825 L348.435,62.169 C346.871,63.767 345.324,64.923 343.794,65.637 C342.264,66.351 340.479,66.708 338.439,66.708 Z M391.284,77.163 C394.888,77.163 398.0755,76.721 400.8465,75.837 C403.6175,74.953 405.9465,73.712 407.8335,72.114 C409.7205,70.516 411.14,68.612 412.092,66.402 C413.044,64.192 413.52,61.778 413.52,59.16 C413.52,57.018 413.1715,55.182 412.4745,53.652 C411.7775,52.122 410.851,50.8215 409.695,49.7505 C408.539,48.6795 407.23,47.7785 405.768,47.0475 C404.306,46.3165 402.81,45.679 401.28,45.135 C399.75,44.591 398.254,44.098 396.792,43.656 C395.33,43.214 394.021,42.7465 392.865,42.2535 C391.709,41.7605 390.7825,41.191 390.0855,40.545 C389.3885,39.899 389.04,39.083 389.04,38.097 C389.04,36.737 389.5755,35.6745 390.6465,34.9095 C391.7175,34.1445 393.256,33.762 395.262,33.762 C396.656,33.762 397.897,33.9235 398.985,34.2465 C400.073,34.5695 401.0505,34.918 401.9175,35.292 C402.7845,35.666 403.592,36.0145 404.34,36.3375 C405.088,36.6605 405.836,36.822 406.584,36.822 C407.298,36.822 407.8845,36.686 408.3435,36.414 C408.8025,36.142 409.236,35.683 409.644,35.037 L409.644,35.037 L413.214,29.478 C412.228,28.492 411.089,27.5825 409.797,26.7495 C408.505,25.9165 407.077,25.194 405.513,24.582 C403.949,23.97 402.2745,23.494 400.4895,23.154 C398.7045,22.814 396.86,22.644 394.956,22.644 C391.454,22.644 388.394,23.0945 385.776,23.9955 C383.158,24.8965 380.982,26.112 379.248,27.642 C377.514,29.172 376.2135,30.9485 375.3465,32.9715 C374.4795,34.9945 374.046,37.128 374.046,39.372 C374.046,41.786 374.403,43.843 375.117,45.543 C375.831,47.243 376.766,48.6795 377.922,49.8525 C379.078,51.0255 380.3955,51.9945 381.8745,52.7595 C383.3535,53.5245 384.858,54.179 386.388,54.723 C387.918,55.267 389.4225,55.7515 390.9015,56.1765 C392.3805,56.6015 393.698,57.0605 394.854,57.5535 C396.01,58.0465 396.945,58.633 397.659,59.313 C398.373,59.993 398.73,60.86 398.73,61.914 C398.73,62.492 398.611,63.053 398.373,63.597 C398.135,64.141 397.761,64.634 397.251,65.076 C396.741,65.518 396.061,65.8665 395.211,66.1215 C394.361,66.3765 393.324,66.504 392.1,66.504 C390.366,66.504 388.9295,66.3 387.7905,65.892 C386.6515,65.484 385.657,65.042 384.807,64.566 C383.957,64.09 383.1665,63.648 382.4355,63.24 C381.7045,62.832 380.88,62.628 379.962,62.628 C378.976,62.628 378.1685,62.8235 377.5395,63.2145 C376.9105,63.6055 376.392,64.141 375.984,64.821 L375.984,64.821 L372.312,70.635 C373.332,71.553 374.556,72.4115 375.984,73.2105 C377.412,74.0095 378.9675,74.698 380.6505,75.276 C382.3335,75.854 384.076,76.313 385.878,76.653 C387.68,76.993 389.482,77.163 391.284,77.163 Z M442.497,77.163 C445.217,77.163 447.852,76.7805 450.402,76.0155 C452.952,75.2505 455.247,74.103 457.287,72.573 L457.287,72.573 L452.493,65.076 C452.187,64.6 451.8895,64.2515 451.6005,64.0305 C451.3115,63.8095 450.929,63.699 450.453,63.699 C450.113,63.699 449.8155,63.7585 449.5605,63.8775 C449.3055,63.9965 449.0335,64.1325 448.7445,64.2855 C448.4555,64.4385 448.1155,64.5745 447.7245,64.6935 C447.3335,64.8125 446.849,64.872 446.271,64.872 C445.149,64.872 444.2905,64.4725 443.6955,63.6735 C443.1005,62.8745 442.803,61.863 442.803,60.639 L442.803,60.639 L442.803,34.374 L455.91,34.374 L455.91,23.562 L442.803,23.562 L442.803,8.109 L434.541,8.109 C432.637,8.109 431.481,8.925 431.073,10.557 L431.073,10.557 L427.962,23.46 L419.547,25.092 L419.547,31.263 C419.547,32.283 419.836,33.0565 420.414,33.5835 C420.992,34.1105 421.689,34.374 422.505,34.374 L422.505,34.374 L426.993,34.374 L426.993,61.71 C426.993,64.056 427.333,66.181 428.013,68.085 C428.693,69.989 429.6875,71.6125 430.9965,72.9555 C432.3055,74.2985 433.9205,75.3355 435.8415,76.0665 C437.7625,76.7975 439.981,77.163 442.497,77.163 Z" id="TheLeast" fill="#2A3541"></path>
            <path d="M34.527,200.347 C40.307,200.347 45.5685,199.4205 50.3115,197.5675 C55.0545,195.7145 59.109,193.1305 62.475,189.8155 C65.841,186.5005 68.4505,182.5735 70.3035,178.0345 C72.1565,173.4955 73.083,168.54 73.083,163.168 C73.083,157.83 72.1565,152.8915 70.3035,148.3525 C68.4505,143.8135 65.841,139.895 62.475,136.597 C59.109,133.299 55.0545,130.715 50.3115,128.845 C45.5685,126.975 40.307,126.04 34.527,126.04 L34.527,126.04 L5.661,126.04 L5.661,200.347 L34.527,200.347 Z M34.527,187.087 L23.001,187.087 L23.001,139.3 L34.527,139.3 C37.825,139.3 40.766,139.8525 43.35,140.9575 C45.934,142.0625 48.1185,143.6435 49.9035,145.7005 C51.6885,147.7575 53.057,150.265 54.009,153.223 C54.961,156.181 55.437,159.496 55.437,163.168 C55.437,166.874 54.961,170.206 54.009,173.164 C53.057,176.122 51.6885,178.6295 49.9035,180.6865 C48.1185,182.7435 45.934,184.3245 43.35,185.4295 C40.766,186.5345 37.825,187.087 34.527,187.087 L34.527,187.087 Z M94.665,201.163 C96.467,201.163 98.1075,201.0185 99.5865,200.7295 C101.0655,200.4405 102.4595,199.9985 103.7685,199.4035 C105.0775,198.8085 106.344,198.086 107.568,197.236 C108.792,196.386 110.067,195.4 111.393,194.278 L111.393,194.278 L112.515,197.185 C113.025,198.477 113.6625,199.327 114.4275,199.735 C115.1925,200.143 116.323,200.347 117.819,200.347 L117.819,200.347 L125.061,200.347 L125.061,167.299 C125.061,164.273 124.585,161.485 123.633,158.935 C122.681,156.385 121.3125,154.1835 119.5275,152.3305 C117.7425,150.4775 115.5665,149.0325 112.9995,147.9955 C110.4325,146.9585 107.551,146.44 104.355,146.44 C99.901,146.44 95.7275,147.1285 91.8345,148.5055 C87.9415,149.8825 84.397,151.982 81.201,154.804 L81.201,154.804 L84.057,159.751 C84.533,160.499 85.145,161.145 85.893,161.689 C86.641,162.233 87.559,162.505 88.647,162.505 C89.871,162.505 90.925,162.301 91.809,161.893 C92.693,161.485 93.6025,161.026 94.5375,160.516 C95.4725,160.006 96.535,159.547 97.725,159.139 C98.915,158.731 100.445,158.527 102.315,158.527 C104.661,158.527 106.4715,159.2155 107.7465,160.5925 C109.0215,161.9695 109.659,164.205 109.659,167.299 L109.659,167.299 L109.659,169.543 C103.607,169.679 98.592,170.291 94.614,171.379 C90.636,172.467 87.474,173.8185 85.128,175.4335 C82.782,177.0485 81.133,178.8335 80.181,180.7885 C79.229,182.7435 78.753,184.673 78.753,186.577 C78.753,188.957 79.127,191.0565 79.875,192.8755 C80.623,194.6945 81.6855,196.216 83.0625,197.44 C84.4395,198.664 86.114,199.5905 88.086,200.2195 C90.058,200.8485 92.251,201.163 94.665,201.163 Z M99.663,190.708 C97.759,190.708 96.314,190.3425 95.328,189.6115 C94.342,188.8805 93.849,187.614 93.849,185.812 C93.849,184.894 94.0785,184.044 94.5375,183.262 C94.9965,182.48 95.821,181.783 97.011,181.171 C98.201,180.559 99.816,180.049 101.856,179.641 C103.896,179.233 106.497,178.961 109.659,178.825 L109.659,178.825 L109.659,186.169 C108.095,187.767 106.548,188.923 105.018,189.637 C103.488,190.351 101.703,190.708 99.663,190.708 Z M153.069,200.347 L153.069,162.607 C154.497,161.349 155.9675,160.3545 157.4805,159.6235 C158.9935,158.8925 160.617,158.527 162.351,158.527 C164.663,158.527 166.414,159.2495 167.604,160.6945 C168.794,162.1395 169.389,164.154 169.389,166.738 L169.389,166.738 L169.389,200.347 L185.199,200.347 L185.199,166.738 C185.199,163.848 184.808,161.1705 184.026,158.7055 C183.244,156.2405 182.088,154.1155 180.558,152.3305 C179.028,150.5455 177.1495,149.1515 174.9225,148.1485 C172.6955,147.1455 170.137,146.644 167.247,146.644 C165.547,146.644 163.9745,146.8055 162.5295,147.1285 C161.0845,147.4515 159.7415,147.8935 158.5005,148.4545 C157.2595,149.0155 156.095,149.704 155.007,150.52 C153.919,151.336 152.865,152.22 151.845,153.172 L151.845,153.172 L150.927,150.112 C150.315,148.344 149.023,147.46 147.051,147.46 L147.051,147.46 L137.259,147.46 L137.259,200.347 L153.069,200.347 Z M218.154,218.554 C222.37,218.554 226.11,218.0185 229.374,216.9475 C232.638,215.8765 235.392,214.457 237.636,212.689 C239.88,210.921 241.58,208.898 242.736,206.62 C243.892,204.342 244.47,202.013 244.47,199.633 C244.47,197.083 243.994,194.9835 243.042,193.3345 C242.09,191.6855 240.832,190.368 239.268,189.382 C237.704,188.396 235.9275,187.682 233.9385,187.24 C231.9495,186.798 229.918,186.4835 227.844,186.2965 C225.77,186.1095 223.7385,185.9905 221.7495,185.9395 C219.7605,185.8885 217.984,185.7865 216.42,185.6335 C214.856,185.4805 213.598,185.2085 212.646,184.8175 C211.694,184.4265 211.218,183.789 211.218,182.905 C211.218,182.021 211.796,181.222 212.952,180.508 C213.7,180.644 214.465,180.7375 215.247,180.7885 C216.029,180.8395 216.828,180.865 217.644,180.865 C220.636,180.865 223.441,180.4655 226.059,179.6665 C228.677,178.8675 230.9465,177.7285 232.8675,176.2495 C234.7885,174.7705 236.3015,172.977 237.4065,170.869 C238.5115,168.761 239.064,166.381 239.064,163.729 C239.064,162.879 239.0045,162.063 238.8855,161.281 C238.7665,160.499 238.605,159.734 238.401,158.986 L238.401,158.986 L242.226,158.119 C243.416,157.847 244.2575,157.456 244.7505,156.946 C245.2435,156.436 245.49,155.739 245.49,154.855 L245.49,154.855 L245.49,149.092 L229.578,149.092 C226.11,147.392 222.132,146.542 217.644,146.542 C214.55,146.542 211.677,146.9415 209.025,147.7405 C206.373,148.5395 204.0695,149.6785 202.1145,151.1575 C200.1595,152.6365 198.621,154.4385 197.499,156.5635 C196.377,158.6885 195.816,161.077 195.816,163.729 C195.816,166.925 196.615,169.7215 198.213,172.1185 C199.811,174.5155 201.987,176.445 204.741,177.907 C203.517,178.485 202.463,179.148 201.579,179.896 C200.695,180.644 199.9555,181.4345 199.3605,182.2675 C198.7655,183.1005 198.332,183.9505 198.06,184.8175 C197.788,185.6845 197.652,186.509 197.652,187.291 C197.652,189.229 198.026,190.81 198.774,192.034 C199.522,193.258 200.542,194.261 201.834,195.043 C199.386,195.995 197.482,197.253 196.122,198.817 C194.762,200.381 194.082,202.336 194.082,204.682 C194.082,206.484 194.558,208.218 195.51,209.884 C196.462,211.55 197.9325,213.0205 199.9215,214.2955 C201.9105,215.5705 204.4095,216.599 207.4185,217.381 C210.4275,218.163 214.006,218.554 218.154,218.554 Z M217.644,171.124 C216.352,171.124 215.2385,170.9455 214.3035,170.5885 C213.3685,170.2315 212.595,169.7385 211.983,169.1095 C211.371,168.4805 210.9205,167.741 210.6315,166.891 C210.3425,166.041 210.198,165.106 210.198,164.086 C210.198,161.944 210.7845,160.261 211.9575,159.037 C213.1305,157.813 215.026,157.201 217.644,157.201 C220.262,157.201 222.1575,157.813 223.3305,159.037 C224.5035,160.261 225.09,161.944 225.09,164.086 C225.09,166.16 224.5035,167.8515 223.3305,169.1605 C222.1575,170.4695 220.262,171.124 217.644,171.124 Z M218.46,207.691 C216.352,207.691 214.6095,207.5635 213.2325,207.3085 C211.8555,207.0535 210.759,206.705 209.943,206.263 C209.127,205.821 208.5575,205.294 208.2345,204.682 C207.9115,204.07 207.75,203.39 207.75,202.642 C207.75,201.588 208.0645,200.6445 208.6935,199.8115 C209.3225,198.9785 210.13,198.222 211.116,197.542 C213.326,197.746 215.5445,197.8735 217.7715,197.9245 C219.9985,197.9755 222.013,198.12 223.815,198.358 C225.617,198.596 227.079,198.9955 228.201,199.5565 C229.323,200.1175 229.884,201.027 229.884,202.285 C229.884,203.067 229.714,203.7895 229.374,204.4525 C229.034,205.1155 228.4305,205.685 227.5635,206.161 C226.6965,206.637 225.532,207.011 224.07,207.283 C222.608,207.555 220.738,207.691 218.46,207.691 Z M277.221,201.163 C279.023,201.163 280.9185,201.0355 282.9075,200.7805 C284.8965,200.5255 286.8855,200.0665 288.8745,199.4035 C290.8635,198.7405 292.8015,197.8225 294.6885,196.6495 C296.5755,195.4765 298.335,193.955 299.967,192.085 L299.967,192.085 L295.377,186.424 C294.731,185.506 293.779,185.047 292.521,185.047 C291.569,185.047 290.6595,185.268 289.7925,185.71 C288.9255,186.152 287.9735,186.645 286.9365,187.189 C285.8995,187.733 284.718,188.226 283.392,188.668 C282.066,189.11 280.485,189.331 278.649,189.331 C275.215,189.331 272.41,188.3365 270.234,186.3475 C268.058,184.3585 266.715,181.154 266.205,176.734 L266.205,176.734 L296.703,176.734 C297.417,176.734 298.0035,176.649 298.4625,176.479 C298.9215,176.309 299.287,176.003 299.559,175.561 C299.831,175.119 300.018,174.524 300.12,173.776 C300.222,173.028 300.273,172.059 300.273,170.869 C300.273,167.061 299.6865,163.6525 298.5135,160.6435 C297.3405,157.6345 295.7085,155.093 293.6175,153.019 C291.5265,150.945 289.0275,149.364 286.1205,148.276 C283.2135,147.188 280.009,146.644 276.507,146.644 C272.461,146.644 268.8315,147.341 265.6185,148.735 C262.4055,150.129 259.6685,152.016 257.4075,154.396 C255.1465,156.776 253.4125,159.547 252.2055,162.709 C250.9985,165.871 250.395,169.22 250.395,172.756 C250.395,177.448 251.1005,181.562 252.5115,185.098 C253.9225,188.634 255.8435,191.592 258.2745,193.972 C260.7055,196.352 263.5445,198.1455 266.7915,199.3525 C270.0385,200.5595 273.515,201.163 277.221,201.163 Z M286.095,167.554 L266.409,167.554 C266.953,164.324 268.075,161.8505 269.775,160.1335 C271.475,158.4165 273.821,157.558 276.813,157.558 C278.513,157.558 279.958,157.847 281.148,158.425 C282.338,159.003 283.2985,159.7595 284.0295,160.6945 C284.7605,161.6295 285.2875,162.692 285.6105,163.882 C285.9335,165.072 286.095,166.296 286.095,167.554 L286.095,167.554 Z M326.088,200.347 L326.088,168.217 C327.04,166.041 328.2045,164.341 329.5815,163.117 C330.9585,161.893 332.803,161.281 335.115,161.281 C335.523,161.281 335.9735,161.3065 336.4665,161.3575 C336.9595,161.4085 337.444,161.4595 337.92,161.5105 C338.396,161.5615 338.855,161.604 339.297,161.638 C339.739,161.672 340.096,161.689 340.368,161.689 C341.048,161.689 341.5835,161.553 341.9745,161.281 C342.3655,161.009 342.646,160.499 342.816,159.751 L342.816,159.751 L343.836,148.123 C342.34,147.001 340.402,146.44 338.022,146.44 C335.268,146.44 332.8285,147.256 330.7035,148.888 C328.5785,150.52 326.7,152.764 325.068,155.62 L325.068,155.62 L324.252,151.183 C324.116,150.503 323.9545,149.925 323.7675,149.449 C323.5805,148.973 323.3085,148.5905 322.9515,148.3015 C322.5945,148.0125 322.1525,147.8 321.6255,147.664 C321.0985,147.528 320.444,147.46 319.662,147.46 L319.662,147.46 L310.278,147.46 L310.278,200.347 L326.088,200.347 Z M374.751,201.163 C378.763,201.163 382.418,200.5255 385.716,199.2505 C389.014,197.9755 391.8445,196.1565 394.2075,193.7935 C396.5705,191.4305 398.4065,188.5575 399.7155,185.1745 C401.0245,181.7915 401.679,177.992 401.679,173.776 C401.679,169.594 401.0245,165.8285 399.7155,162.4795 C398.4065,159.1305 396.5705,156.283 394.2075,153.937 C391.8445,151.591 389.014,149.789 385.716,148.531 C382.418,147.273 378.763,146.644 374.751,146.644 C370.705,146.644 367.0245,147.273 363.7095,148.531 C360.3945,149.789 357.5385,151.591 355.1415,153.937 C352.7445,156.283 350.8915,159.1305 349.5825,162.4795 C348.2735,165.8285 347.619,169.594 347.619,173.776 C347.619,177.992 348.2735,181.7915 349.5825,185.1745 C350.8915,188.5575 352.7445,191.4305 355.1415,193.7935 C357.5385,196.1565 360.3945,197.9755 363.7095,199.2505 C367.0245,200.5255 370.705,201.163 374.751,201.163 Z M374.751,189.433 C371.011,189.433 368.274,188.1495 366.54,185.5825 C364.806,183.0155 363.939,179.114 363.939,173.878 C363.939,168.642 364.806,164.749 366.54,162.199 C368.274,159.649 371.011,158.374 374.751,158.374 C378.389,158.374 381.0665,159.649 382.7835,162.199 C384.5005,164.749 385.359,168.642 385.359,173.878 C385.359,179.114 384.5005,183.0155 382.7835,185.5825 C381.0665,188.1495 378.389,189.433 374.751,189.433 Z M429.177,201.163 C430.877,201.163 432.4495,201.0015 433.8945,200.6785 C435.3395,200.3555 436.6825,199.9135 437.9235,199.3525 C439.1645,198.7915 440.329,198.1115 441.417,197.3125 C442.505,196.5135 443.559,195.621 444.579,194.635 L444.579,194.635 L445.497,197.695 C446.109,199.463 447.401,200.347 449.373,200.347 L449.373,200.347 L459.165,200.347 L459.165,147.46 L443.355,147.46 L443.355,185.149 C441.927,186.407 440.4565,187.4015 438.9435,188.1325 C437.4305,188.8635 435.807,189.229 434.073,189.229 C431.761,189.229 430.01,188.515 428.82,187.087 C427.63,185.659 427.035,183.636 427.035,181.018 L427.035,181.018 L427.035,147.46 L411.225,147.46 L411.225,181.018 C411.225,183.942 411.616,186.628 412.398,189.076 C413.18,191.524 414.336,193.649 415.866,195.451 C417.396,197.253 419.2745,198.6555 421.5015,199.6585 C423.7285,200.6615 426.287,201.163 429.177,201.163 Z M487.224,201.163 C490.828,201.163 494.0155,200.721 496.7865,199.837 C499.5575,198.953 501.8865,197.712 503.7735,196.114 C505.6605,194.516 507.08,192.612 508.032,190.402 C508.984,188.192 509.46,185.778 509.46,183.16 C509.46,181.018 509.1115,179.182 508.4145,177.652 C507.7175,176.122 506.791,174.8215 505.635,173.7505 C504.479,172.6795 503.17,171.7785 501.708,171.0475 C500.246,170.3165 498.75,169.679 497.22,169.135 C495.69,168.591 494.194,168.098 492.732,167.656 C491.27,167.214 489.961,166.7465 488.805,166.2535 C487.649,165.7605 486.7225,165.191 486.0255,164.545 C485.3285,163.899 484.98,163.083 484.98,162.097 C484.98,160.737 485.5155,159.6745 486.5865,158.9095 C487.6575,158.1445 489.196,157.762 491.202,157.762 C492.596,157.762 493.837,157.9235 494.925,158.2465 C496.013,158.5695 496.9905,158.918 497.8575,159.292 C498.7245,159.666 499.532,160.0145 500.28,160.3375 C501.028,160.6605 501.776,160.822 502.524,160.822 C503.238,160.822 503.8245,160.686 504.2835,160.414 C504.7425,160.142 505.176,159.683 505.584,159.037 L505.584,159.037 L509.154,153.478 C508.168,152.492 507.029,151.5825 505.737,150.7495 C504.445,149.9165 503.017,149.194 501.453,148.582 C499.889,147.97 498.2145,147.494 496.4295,147.154 C494.6445,146.814 492.8,146.644 490.896,146.644 C487.394,146.644 484.334,147.0945 481.716,147.9955 C479.098,148.8965 476.922,150.112 475.188,151.642 C473.454,153.172 472.1535,154.9485 471.2865,156.9715 C470.4195,158.9945 469.986,161.128 469.986,163.372 C469.986,165.786 470.343,167.843 471.057,169.543 C471.771,171.243 472.706,172.6795 473.862,173.8525 C475.018,175.0255 476.3355,175.9945 477.8145,176.7595 C479.2935,177.5245 480.798,178.179 482.328,178.723 C483.858,179.267 485.3625,179.7515 486.8415,180.1765 C488.3205,180.6015 489.638,181.0605 490.794,181.5535 C491.95,182.0465 492.885,182.633 493.599,183.313 C494.313,183.993 494.67,184.86 494.67,185.914 C494.67,186.492 494.551,187.053 494.313,187.597 C494.075,188.141 493.701,188.634 493.191,189.076 C492.681,189.518 492.001,189.8665 491.151,190.1215 C490.301,190.3765 489.264,190.504 488.04,190.504 C486.306,190.504 484.8695,190.3 483.7305,189.892 C482.5915,189.484 481.597,189.042 480.747,188.566 C479.897,188.09 479.1065,187.648 478.3755,187.24 C477.6445,186.832 476.82,186.628 475.902,186.628 C474.916,186.628 474.1085,186.8235 473.4795,187.2145 C472.8505,187.6055 472.332,188.141 471.924,188.821 L471.924,188.821 L468.252,194.635 C469.272,195.553 470.496,196.4115 471.924,197.2105 C473.352,198.0095 474.9075,198.698 476.5905,199.276 C478.2735,199.854 480.016,200.313 481.818,200.653 C483.62,200.993 485.422,201.163 487.224,201.163 Z" id="Dangerous" fill="#EC313C"></path>
            <path d="M38.148,332.347 L38.148,271.708 L59.058,271.708 L59.058,258.04 L-1.13686838e-12,258.04 L-1.13686838e-12,271.708 L20.91,271.708 L20.91,332.347 L38.148,332.347 Z M80.334,333.163 C84.346,333.163 88.001,332.5255 91.299,331.2505 C94.597,329.9755 97.4275,328.1565 99.7905,325.7935 C102.1535,323.4305 103.9895,320.5575 105.2985,317.1745 C106.6075,313.7915 107.262,309.992 107.262,305.776 C107.262,301.594 106.6075,297.8285 105.2985,294.4795 C103.9895,291.1305 102.1535,288.283 99.7905,285.937 C97.4275,283.591 94.597,281.789 91.299,280.531 C88.001,279.273 84.346,278.644 80.334,278.644 C76.288,278.644 72.6075,279.273 69.2925,280.531 C65.9775,281.789 63.1215,283.591 60.7245,285.937 C58.3275,288.283 56.4745,291.1305 55.1655,294.4795 C53.8565,297.8285 53.202,301.594 53.202,305.776 C53.202,309.992 53.8565,313.7915 55.1655,317.1745 C56.4745,320.5575 58.3275,323.4305 60.7245,325.7935 C63.1215,328.1565 65.9775,329.9755 69.2925,331.2505 C72.6075,332.5255 76.288,333.163 80.334,333.163 Z M80.334,321.433 C76.594,321.433 73.857,320.1495 72.123,317.5825 C70.389,315.0155 69.522,311.114 69.522,305.878 C69.522,300.642 70.389,296.749 72.123,294.199 C73.857,291.649 76.594,290.374 80.334,290.374 C83.972,290.374 86.6495,291.649 88.3665,294.199 C90.0835,296.749 90.942,300.642 90.942,305.878 C90.942,311.114 90.0835,315.0155 88.3665,317.5825 C86.6495,320.1495 83.972,321.433 80.334,321.433 Z M144.807,307.714 L144.807,294.964 L117.267,294.964 L117.267,307.714 L144.807,307.714 Z M188.268,332.347 C194.048,332.347 199.3095,331.4205 204.0525,329.5675 C208.7955,327.7145 212.85,325.1305 216.216,321.8155 C219.582,318.5005 222.1915,314.5735 224.0445,310.0345 C225.8975,305.4955 226.824,300.54 226.824,295.168 C226.824,289.83 225.8975,284.8915 224.0445,280.3525 C222.1915,275.8135 219.582,271.895 216.216,268.597 C212.85,265.299 208.7955,262.715 204.0525,260.845 C199.3095,258.975 194.048,258.04 188.268,258.04 L188.268,258.04 L159.402,258.04 L159.402,332.347 L188.268,332.347 Z M188.268,319.087 L176.742,319.087 L176.742,271.3 L188.268,271.3 C191.566,271.3 194.507,271.8525 197.091,272.9575 C199.675,274.0625 201.8595,275.6435 203.6445,277.7005 C205.4295,279.7575 206.798,282.265 207.75,285.223 C208.702,288.181 209.178,291.496 209.178,295.168 C209.178,298.874 208.702,302.206 207.75,305.164 C206.798,308.122 205.4295,310.6295 203.6445,312.6865 C201.8595,314.7435 199.675,316.3245 197.091,317.4295 C194.507,318.5345 191.566,319.087 188.268,319.087 L188.268,319.087 Z M261.054,333.163 C265.066,333.163 268.721,332.5255 272.019,331.2505 C275.317,329.9755 278.1475,328.1565 280.5105,325.7935 C282.8735,323.4305 284.7095,320.5575 286.0185,317.1745 C287.3275,313.7915 287.982,309.992 287.982,305.776 C287.982,301.594 287.3275,297.8285 286.0185,294.4795 C284.7095,291.1305 282.8735,288.283 280.5105,285.937 C278.1475,283.591 275.317,281.789 272.019,280.531 C268.721,279.273 265.066,278.644 261.054,278.644 C257.008,278.644 253.3275,279.273 250.0125,280.531 C246.6975,281.789 243.8415,283.591 241.4445,285.937 C239.0475,288.283 237.1945,291.1305 235.8855,294.4795 C234.5765,297.8285 233.922,301.594 233.922,305.776 C233.922,309.992 234.5765,313.7915 235.8855,317.1745 C237.1945,320.5575 239.0475,323.4305 241.4445,325.7935 C243.8415,328.1565 246.6975,329.9755 250.0125,331.2505 C253.3275,332.5255 257.008,333.163 261.054,333.163 Z M261.054,321.433 C257.314,321.433 254.577,320.1495 252.843,317.5825 C251.109,315.0155 250.242,311.114 250.242,305.878 C250.242,300.642 251.109,296.749 252.843,294.199 C254.577,291.649 257.314,290.374 261.054,290.374 C264.692,290.374 267.3695,291.649 269.0865,294.199 C270.8035,296.749 271.662,300.642 271.662,305.878 C271.662,311.114 270.8035,315.0155 269.0865,317.5825 C267.3695,320.1495 264.692,321.433 261.054,321.433 Z M370.314,332.347 L370.314,318.577 L342.774,318.577 L342.774,258.04 L325.536,258.04 L325.536,332.347 L370.314,332.347 Z M387.459,274.156 C388.785,274.156 390.0345,273.9095 391.2075,273.4165 C392.3805,272.9235 393.409,272.2605 394.293,271.4275 C395.177,270.5945 395.874,269.6255 396.384,268.5205 C396.894,267.4155 397.149,266.234 397.149,264.976 C397.149,263.684 396.894,262.477 396.384,261.355 C395.874,260.233 395.177,259.247 394.293,258.397 C393.409,257.547 392.3805,256.884 391.2075,256.408 C390.0345,255.932 388.785,255.694 387.459,255.694 C386.167,255.694 384.96,255.932 383.838,256.408 C382.716,256.884 381.7215,257.547 380.8545,258.397 C379.9875,259.247 379.3075,260.233 378.8145,261.355 C378.3215,262.477 378.075,263.684 378.075,264.976 C378.075,266.234 378.3215,267.4155 378.8145,268.5205 C379.3075,269.6255 379.9875,270.5945 380.8545,271.4275 C381.7215,272.2605 382.716,272.9235 383.838,273.4165 C384.96,273.9095 386.167,274.156 387.459,274.156 Z M395.517,332.347 L395.517,279.46 L379.707,279.46 L379.707,332.347 L395.517,332.347 Z M423.933,333.163 C427.537,333.163 430.7245,332.721 433.4955,331.837 C436.2665,330.953 438.5955,329.712 440.4825,328.114 C442.3695,326.516 443.789,324.612 444.741,322.402 C445.693,320.192 446.169,317.778 446.169,315.16 C446.169,313.018 445.8205,311.182 445.1235,309.652 C444.4265,308.122 443.5,306.8215 442.344,305.7505 C441.188,304.6795 439.879,303.7785 438.417,303.0475 C436.955,302.3165 435.459,301.679 433.929,301.135 C432.399,300.591 430.903,300.098 429.441,299.656 C427.979,299.214 426.67,298.7465 425.514,298.2535 C424.358,297.7605 423.4315,297.191 422.7345,296.545 C422.0375,295.899 421.689,295.083 421.689,294.097 C421.689,292.737 422.2245,291.6745 423.2955,290.9095 C424.3665,290.1445 425.905,289.762 427.911,289.762 C429.305,289.762 430.546,289.9235 431.634,290.2465 C432.722,290.5695 433.6995,290.918 434.5665,291.292 C435.4335,291.666 436.241,292.0145 436.989,292.3375 C437.737,292.6605 438.485,292.822 439.233,292.822 C439.947,292.822 440.5335,292.686 440.9925,292.414 C441.4515,292.142 441.885,291.683 442.293,291.037 L442.293,291.037 L445.863,285.478 C444.877,284.492 443.738,283.5825 442.446,282.7495 C441.154,281.9165 439.726,281.194 438.162,280.582 C436.598,279.97 434.9235,279.494 433.1385,279.154 C431.3535,278.814 429.509,278.644 427.605,278.644 C424.103,278.644 421.043,279.0945 418.425,279.9955 C415.807,280.8965 413.631,282.112 411.897,283.642 C410.163,285.172 408.8625,286.9485 407.9955,288.9715 C407.1285,290.9945 406.695,293.128 406.695,295.372 C406.695,297.786 407.052,299.843 407.766,301.543 C408.48,303.243 409.415,304.6795 410.571,305.8525 C411.727,307.0255 413.0445,307.9945 414.5235,308.7595 C416.0025,309.5245 417.507,310.179 419.037,310.723 C420.567,311.267 422.0715,311.7515 423.5505,312.1765 C425.0295,312.6015 426.347,313.0605 427.503,313.5535 C428.659,314.0465 429.594,314.633 430.308,315.313 C431.022,315.993 431.379,316.86 431.379,317.914 C431.379,318.492 431.26,319.053 431.022,319.597 C430.784,320.141 430.41,320.634 429.9,321.076 C429.39,321.518 428.71,321.8665 427.86,322.1215 C427.01,322.3765 425.973,322.504 424.749,322.504 C423.015,322.504 421.5785,322.3 420.4395,321.892 C419.3005,321.484 418.306,321.042 417.456,320.566 C416.606,320.09 415.8155,319.648 415.0845,319.24 C414.3535,318.832 413.529,318.628 412.611,318.628 C411.625,318.628 410.8175,318.8235 410.1885,319.2145 C409.5595,319.6055 409.041,320.141 408.633,320.821 L408.633,320.821 L404.961,326.635 C405.981,327.553 407.205,328.4115 408.633,329.2105 C410.061,330.0095 411.6165,330.698 413.2995,331.276 C414.9825,331.854 416.725,332.313 418.527,332.653 C420.329,332.993 422.131,333.163 423.933,333.163 Z M475.146,333.163 C477.866,333.163 480.501,332.7805 483.051,332.0155 C485.601,331.2505 487.896,330.103 489.936,328.573 L489.936,328.573 L485.142,321.076 C484.836,320.6 484.5385,320.2515 484.2495,320.0305 C483.9605,319.8095 483.578,319.699 483.102,319.699 C482.762,319.699 482.4645,319.7585 482.2095,319.8775 C481.9545,319.9965 481.6825,320.1325 481.3935,320.2855 C481.1045,320.4385 480.7645,320.5745 480.3735,320.6935 C479.9825,320.8125 479.498,320.872 478.92,320.872 C477.798,320.872 476.9395,320.4725 476.3445,319.6735 C475.7495,318.8745 475.452,317.863 475.452,316.639 L475.452,316.639 L475.452,290.374 L488.559,290.374 L488.559,279.562 L475.452,279.562 L475.452,264.109 L467.19,264.109 C465.286,264.109 464.13,264.925 463.722,266.557 L463.722,266.557 L460.611,279.46 L452.196,281.092 L452.196,287.263 C452.196,288.283 452.485,289.0565 453.063,289.5835 C453.641,290.1105 454.338,290.374 455.154,290.374 L455.154,290.374 L459.642,290.374 L459.642,317.71 C459.642,320.056 459.982,322.181 460.662,324.085 C461.342,325.989 462.3365,327.6125 463.6455,328.9555 C464.9545,330.2985 466.5695,331.3355 468.4905,332.0665 C470.4115,332.7975 472.63,333.163 475.146,333.163 Z" id="To-DoList" fill="#2A3541"></path>
        </g>
        <path d="M364.73494,102 C401.332122,102 431,131.667878 431,168.26506 L431,365.73494 C431,402.332122 401.332122,432 364.73494,432 L167.26506,432 C130.667878,432 101,402.332122 101,365.73494 L101,168.26506 C101,131.667878 130.667878,102 167.26506,102 L364.73494,102 Z M359.5,124 L172.5,124 L171.696017,124.006397 C145.479864,124.423861 124.214524,145.221864 123.050218,171.250185 L123.021104,172.040508 L123,173.5 L123,360.5 L123.006397,361.303983 C123.423861,387.520136 144.221864,408.785476 170.250185,409.949782 L171.040508,409.978896 L172.5,410 L359.5,410 L360.303983,409.993603 C386.520136,409.576139 407.785476,388.778136 408.949782,362.749815 L408.978896,361.959492 L409,360.5 L409,173.5 L408.993603,172.696017 C408.576139,146.479864 387.778136,125.214524 361.749815,124.050218 L360.959492,124.021104 L359.5,124 Z M360,140 L361.23716,140.022762 C378.712816,140.666849 392.717433,154.899894 392.995777,172.466664 L393,173 L393,360 L392.977238,361.23716 C392.333151,378.712816 378.100106,392.717433 360.533336,392.995777 L360,393 L173,393 L171.76284,392.977238 C154.287184,392.333151 140.282567,378.100106 140.004223,360.533336 L140,360 L140,173 L140.022762,171.76284 C140.666849,154.287184 154.899894,140.282567 172.466664,140.004223 L173,140 L360,140 Z M234.071698,329 C231.227673,329 228.640566,329.438416 226.310377,330.315248 C223.980189,331.19208 221.972642,332.448082 220.287736,334.083255 C218.60283,335.718428 217.300314,337.703149 216.380189,340.037418 C215.460063,342.371687 215,344.996258 215,347.911132 C215,350.849704 215.460063,353.497973 216.380189,355.85594 C217.300314,358.213907 218.60283,360.216402 220.287736,361.863424 C221.972642,363.510446 223.980189,364.778297 226.310377,365.666978 C228.640566,366.555659 231.227673,367 234.071698,367 C236.891824,367 239.461006,366.555659 241.779245,365.666978 C244.097484,364.778297 246.087107,363.510446 247.748113,361.863424 C249.409119,360.216402 250.699686,358.213907 251.619811,355.85594 C252.539937,353.497973 253,350.849704 253,347.911132 C253,344.996258 252.539937,342.371687 251.619811,340.037418 C250.699686,337.703149 249.409119,335.718428 247.748113,334.083255 C246.087107,332.448082 244.097484,331.19208 241.779245,330.315248 C239.461006,329.438416 236.891824,329 234.071698,329 Z M329.637838,319 L323.727027,319 C322.419351,319 321.604856,319.522739 321.283542,320.568217 L321.245946,320.701625 L319.02027,329.670606 L313,330.805022 L313,335.094535 C313,335.803545 313.206757,336.341211 313.62027,336.707533 C313.996192,337.040553 314.442473,337.222201 314.959113,337.252475 L315.116216,337.257016 L318.327027,337.257016 L318.327027,356.258493 C318.327027,357.889217 318.57027,359.366322 319.056757,360.689808 C319.543243,362.013294 320.25473,363.141802 321.191216,364.075332 C322.127703,365.008863 323.283108,365.72969 324.657432,366.237814 C326.031757,366.745938 327.618919,367 329.418919,367 C331.364865,367 333.25,366.734121 335.074324,366.202363 C336.777027,365.706056 338.320811,364.978139 339.705676,364.018612 L340,363.809453 L336.57027,358.598227 C336.351351,358.267356 336.138514,358.025111 335.931757,357.871492 C335.725,357.717873 335.451351,357.641064 335.110811,357.641064 C334.867568,357.641064 334.65473,357.682422 334.472297,357.76514 C334.289865,357.847858 334.09527,357.942393 333.888514,358.048744 C333.681757,358.155096 333.438514,358.249631 333.158784,358.332349 C332.879054,358.415066 332.532432,358.456425 332.118919,358.456425 C331.316216,358.456425 330.702027,358.17873 330.276351,357.623338 C329.88342,357.110669 329.671842,356.47214 329.641616,355.707752 L329.637838,355.514032 L329.637838,337.257016 L339.014865,337.257016 L339.014865,329.741507 L329.637838,329.741507 L329.637838,319 Z M347.5,354 C346.564394,354 345.702652,354.157895 344.914773,354.473684 C344.126894,354.789474 343.443655,355.216374 342.865057,355.754386 C342.286458,356.292398 341.830966,356.923977 341.49858,357.649123 C341.166193,358.374269 341,359.157895 341,360 C341,360.842105 341.166193,361.631579 341.49858,362.368421 C341.830966,363.105263 342.286458,363.74269 342.865057,364.280702 C343.443655,364.818713 344.126894,365.239766 344.914773,365.54386 C345.702652,365.847953 346.564394,366 347.5,366 C348.410985,366 349.260417,365.847953 350.048295,365.54386 C350.836174,365.239766 351.525568,364.818713 352.116477,364.280702 C352.707386,363.74269 353.169034,363.105263 353.50142,362.368421 C353.833807,361.631579 354,360.842105 354,360 C354,359.157895 353.833807,358.374269 353.50142,357.649123 C353.169034,356.923977 352.707386,356.292398 352.116477,355.754386 C351.525568,355.216374 350.836174,354.789474 350.048295,354.473684 C349.260417,354.157895 348.410985,354 347.5,354 Z M184.122542,314 L164,314 L164,366 L184.122542,366 C188.15179,366 191.819592,365.351636 195.125946,364.054907 C198.4323,362.758179 201.258699,360.949897 203.605144,358.630062 C205.951589,356.310226 207.770676,353.562114 209.062405,350.385724 C210.354135,347.209334 211,343.741478 211,339.982155 C211,336.246625 210.354135,332.790666 209.062405,329.614276 C207.770676,326.437886 205.951589,323.695722 203.605144,321.387783 C201.258699,319.079844 198.4323,317.271563 195.125946,315.962938 C191.957356,314.708839 188.456813,314.055662 184.624315,314.003408 L184.122542,314 Z M280.268085,329 C279.062411,329 277.947163,329.111269 276.92234,329.333808 C275.897518,329.556347 274.945035,329.860874 274.064894,330.247388 C273.184752,330.633903 272.358865,331.108262 271.587234,331.670465 C270.969929,332.120228 270.368057,332.599975 269.781617,333.109706 L269.344681,333.497626 L268.693617,331.389364 C268.276936,330.219981 267.415796,329.611902 266.110196,329.565127 L265.944681,329.562203 L259,329.562203 L259,366 L270.212766,366 L270.212766,339.998101 C271.225532,339.131371 272.26844,338.446186 273.341489,337.942545 C274.414539,337.438905 275.565957,337.187085 276.795745,337.187085 C278.435461,337.187085 279.677305,337.684869 280.521277,338.680437 C281.32305,339.626227 281.74398,340.926131 281.784069,342.580151 L281.787234,342.844255 L281.787234,366 L293,366 L293,342.844255 C293,340.853118 292.722695,339.008389 292.168085,337.310066 C291.613475,335.611744 290.793617,334.147673 289.708511,332.917854 C288.623404,331.688034 287.291135,330.727604 285.711702,330.036562 C284.13227,329.345521 282.31773,329 280.268085,329 Z M233.571429,337 C236.119048,337 237.994048,337.90312 239.196429,339.70936 C240.39881,341.515599 241,344.273125 241,347.981938 C241,351.69075 240.39881,354.454297 239.196429,356.272578 C237.994048,358.090859 236.119048,359 233.571429,359 C230.952381,359 229.035714,358.090859 227.821429,356.272578 C226.607143,354.454297 226,351.69075 226,347.981938 C226,344.273125 226.607143,341.515599 227.821429,339.70936 C229.035714,337.90312 230.952381,337 233.571429,337 Z M184.172956,323 C186.51153,323 188.59696,323.381537 190.429245,324.14461 C192.26153,324.907684 193.810535,325.999466 195.076258,327.419957 C196.341981,328.840448 197.312369,330.572038 197.987421,332.614728 C198.662474,334.657417 199,336.946638 199,339.482391 C199,342.041622 198.662474,344.342583 197.987421,346.385272 C197.312369,348.427962 196.341981,350.159552 195.076258,351.580043 C193.810535,353.000534 192.26153,354.092316 190.429245,354.85539 C188.59696,355.618463 186.51153,356 184.172956,356 L176,356 L176,323 L184.172956,323 Z M306.991303,311 L300.262625,313.460624 C299.539111,313.72214 299.050739,314.150074 298.79751,314.744428 C298.54428,315.338782 298.682953,316.052006 299.21353,316.884101 C299.864692,317.882615 300.334976,318.863299 300.624382,319.826152 C300.913787,320.789004 301.082607,321.716196 301.130842,322.607727 C301.179076,323.499257 301.124812,324.343239 300.968051,325.139673 C300.81129,325.936107 300.600265,326.667162 300.334976,327.332838 C300.069688,327.998514 299.780282,328.580981 299.46676,329.080238 C299.153237,329.579495 298.863832,329.971768 298.598543,330.257058 C298.429723,330.423477 298.29105,330.619614 298.182523,330.845468 C298.073996,331.071322 298.013703,331.309064 298.001644,331.558692 C297.989586,331.808321 298.043849,332.057949 298.164435,332.307578 C298.269947,332.526003 298.449319,332.712574 298.702548,332.867292 L298.815597,332.931649 L302.360815,335 C304.410771,333.430906 306.050736,331.683507 307.280709,329.757801 C308.510682,327.832095 309.324636,325.817236 309.722568,323.713224 C310.120501,321.609212 310.090354,319.475483 309.632129,317.312036 C309.200858,315.27585 308.39573,313.292313 307.216744,311.361425 L306.991303,311 Z" id="Shape" fill="#EC313C"></path>
    </g>
</svg>