<?xml version="1.0" encoding="UTF-8"?>
<svg width="193px" height="71px" viewBox="0 0 193 71" version="1.1" xmlns="http://www.w3.org/2000/svg" xmlns:xlink="http://www.w3.org/1999/xlink">
    <!-- Generator: Sketch 61.2 (89653) - https://sketch.com -->
    <defs>
        <path d="M175.789952,0 L15.2186356,0 C14.633333,0 14.0550533,0 13.4712989,0.00340798892 C12.9826422,0.00660797852 12.49788,0.0159039483 12.0045307,0.0237279229 C10.9327479,0.0363707676 9.86348564,0.13088959 8.80603593,0.306463004 C7.75007151,0.485858626 6.72718596,0.824070506 5.771975,1.30965974 C4.81793229,1.79935689 3.9461962,2.43566813 3.18839122,3.19550961 C2.4266079,3.95321434 1.79160267,4.82901851 1.30779314,5.78924518 C0.822648321,6.74756066 0.486247335,7.77448401 0.31020882,8.83454729 C0.132496661,9.8932717 0.0368681317,10.9642052 0.0241814439,12.0377369 C0.00936931194,12.5282953 0.00780509973,13.0204857 0,13.5111081 L0,50.4938039 C0.00780509973,50.9906023 0.00936931194,51.4718807 0.0241814439,51.9688391 C0.0368720221,53.0423175 0.132500553,54.1131976 0.31020882,55.1718687 C0.48576124,56.2325516 0.822182115,57.2600645 1.30779314,58.2187388 C1.79138299,59.1758603 2.42647751,60.0481188 3.18839122,60.8016104 C3.94332284,61.5648303 4.81562242,62.2015745 5.771975,62.6875243 C6.7271787,63.1744131 7.74995397,63.5146381 8.80603593,63.696801 C9.86366541,63.8709679 10.9328177,63.9655252 12.0045307,63.9796801 C12.49788,63.99056 12.9826422,63.9968 13.4712989,63.9968 C14.0550373,64 14.6333649,64 15.2186356,64 L175.789952,64 C176.363602,64 176.946511,64 177.520162,63.9968 C178.006504,63.9968 178.505296,63.99056 178.991639,63.9796801 C180.061325,63.966278 181.128464,63.8717148 182.183908,63.696801 C183.243397,63.5133558 184.26984,63.1732209 185.229653,62.6875243 C186.185143,62.2012932 187.056637,61.5645665 187.810922,60.8016104 C188.570871,60.0451677 189.20732,59.1735474 189.696915,58.2187388 C190.178883,57.2593672 190.512101,56.2319364 190.685083,55.1718687 C190.863076,54.1130523 190.962097,53.0424105 190.981325,51.9688391 C190.98755,51.4718807 190.98755,50.9906023 190.98755,50.4938039 C191,49.9125258 191,49.3344477 191,48.7437296 L191,15.2579664 C191,14.6720323 191,14.0907862 190.98755,13.5111081 C190.98755,13.0204857 190.98755,12.5282953 190.981325,12.0376729 C190.962101,10.9640483 190.863079,9.89335292 190.685083,8.83448329 C190.511619,7.77503329 190.17842,6.74819132 189.696915,5.78918119 C188.71166,3.86450917 187.149329,2.29784117 185.229653,1.30951574 C184.269836,0.825113126 183.243284,0.486991073 182.183908,0.306319004 C181.128648,0.129972031 180.061397,0.0354203087 178.991639,0.0235039236 C178.505296,0.015695949 178.006504,0.00631997946 177.520162,0.0031999896 C176.946511,0 176.363602,0 175.789952,0 L175.789952,0 Z" id="path-1"></path>
        <filter x="-2.4%" y="-5.5%" width="104.7%" height="121.9%" filterUnits="objectBoundingBox" id="filter-2">
            <feMorphology radius="2.5" operator="erode" in="SourceAlpha" result="shadowSpreadOuter1"></feMorphology>
            <feOffset dx="0" dy="6" in="shadowSpreadOuter1" result="shadowOffsetOuter1"></feOffset>
            <feGaussianBlur stdDeviation="3" in="shadowOffsetOuter1" result="shadowBlurOuter1"></feGaussianBlur>
            <feColorMatrix values="0 0 0 0 0   0 0 0 0 0   0 0 0 0 0  0 0 0 0.347956731 0" type="matrix" in="shadowBlurOuter1"></feColorMatrix>
        </filter>
    </defs>
    <g id="Landing-Page" stroke="none" stroke-width="1" fill="none" fill-rule="evenodd">
        <g id="Desktop-HD" transform="translate(-188.000000, -419.000000)" fill-rule="nonzero">
            <g id="download" transform="translate(189.183734, 419.000000)">
                <g id="Path">
                    <use fill="black" fill-opacity="1" filter="url(#filter-2)" xlink:href="#path-1"></use>
                    <use fill="#000000" xlink:href="#path-1"></use>
                </g>
                <path d="M30.22369,24.0864636 C31.5760908,24.0864636 34.1489729,22.1881254 36.8029158,22.471424 C39.3254797,22.5516887 41.6631454,23.8369223 43.1107164,25.9394123 C40.8264752,27.3675837 39.4208516,29.886223 39.3863078,32.6129208 C39.3895686,35.6978538 41.2061825,38.481893 44,39.6836033 C43.4626869,41.4587211 42.6527611,43.1362738 41.6002239,44.6541219 C40.1867073,46.8044971 38.704647,48.9053361 36.3523474,48.9441679 C34.066695,48.9978188 33.2985523,47.5762149 30.6769768,47.5762149 C28.0308413,47.5762149 27.2121086,48.9053521 25.0199395,48.9978188 C22.7797407,49.0822008 21.0676785,46.7027083 19.6027659,44.5725044 C16.6748216,40.2222338 14.3948904,32.3127458 17.451467,26.930909 C18.8867892,24.3078748 21.5704826,22.6434 24.5206617,22.5464677 C26.7628835,22.4995513 28.8451171,24.0864636 30.22369,24.0864636 Z M36.8305578,14 C36.9835684,16.0319711 36.351694,18.0445697 35.0691225,19.6103915 C33.8247863,21.1843382 31.9393506,22.0909282 29.9535923,22.0701353 C29.8273064,20.0966612 30.4775703,18.1530723 31.7611607,16.6674521 C33.0610595,15.1617068 34.8710738,14.2093003 36.8305578,14 Z" id="Apple" fill="#FFFFFF"></path>
                <path d="M82.0500336,34.6123524 C85.7235638,34.6123684 88.1451128,37.5123213 88.1451128,41.991682 C88.1451128,46.4835117 85.7376804,49.3694311 82.1046775,49.3694311 C80.22681,49.4675298 78.4579614,48.485285 77.5505462,46.8405138 L77.4818017,46.8405138 L77.4818017,54 L74.5107603,54 L74.5107603,34.7635925 L77.3866145,34.7635925 L77.3866145,37.1677563 L77.4412584,37.1677563 C78.3889866,35.5332965 80.1597426,34.5514745 82.0500336,34.6123524 Z M97.9808681,34.6123684 C101.65451,34.6123684 104.075995,37.5123213 104.075995,41.991682 C104.075995,46.4835117 101.668563,49.3694311 98.03556,49.3694311 C96.1576925,49.4675298 94.3888439,48.485285 93.4814287,46.8405138 L93.4126842,46.8405138 L93.4126842,54 L90.4416428,54 L90.4416428,34.7635925 L93.3174331,34.7635925 L93.3174331,37.1677563 L93.3720769,37.1677563 C94.319812,35.5332975 96.0905747,34.5514813 97.9808681,34.6123684 Z M119.310576,29.06181 C123.505589,29.06181 126.381427,31.4114041 126.478229,34.832116 L123.479051,34.832116 C123.299516,32.8535894 121.661766,31.6593146 119.268386,31.6593146 C116.875006,31.6593146 115.237272,32.867639 115.237272,34.6263221 C115.237272,36.0279714 116.283308,36.8527433 118.84217,37.4841264 L121.02946,38.0204676 C125.102732,38.9824461 126.795125,40.6164396 126.795125,43.5163605 C126.795125,47.2255031 123.83657,49.5485946 119.130993,49.5485946 C114.728291,49.5485946 111.755699,47.2800728 111.563662,43.6940872 L114.604999,43.6942309 C114.825141,45.6602885 116.737677,46.9511699 119.351167,46.9511699 C121.855401,46.9511699 123.657067,45.6602246 123.657067,43.8874919 C123.657067,42.3486362 122.57044,41.4272258 119.997525,40.7957628 L117.424611,40.1767847 C113.779122,39.2974431 112.086728,37.5948783 112.086728,34.832116 C112.086728,31.4114041 115.071822,29.06181 119.310576,29.06181 Z M168.477138,34.5858499 C172.481713,34.5858499 175,37.333014 175,41.7157044 L175,42.7322525 L164.777005,42.7322525 L164.777005,42.9115438 C164.681558,43.9876613 165.053649,45.0528684 165.798628,45.8362109 C166.543608,46.6195534 167.589675,47.0455306 168.670742,47.0057875 C170.112526,47.1406943 171.471845,46.3139078 172.013355,44.9726912 L174.834502,44.9727072 C174.434824,47.5966984 171.875946,49.3974823 168.602029,49.3974823 C164.391365,49.3974823 161.777859,46.5801502 161.777859,42.0602693 C161.777859,37.5263549 164.405417,34.5858499 168.477138,34.5858499 Z M144.418497,34.5858658 C148.615109,34.5858658 151.284826,37.4436701 151.284826,41.991682 C151.284826,46.552115 148.629162,49.3974982 144.418497,49.3974982 C140.20932,49.3974982 137.55372,46.552099 137.55372,41.991682 C137.55372,37.443734 140.235922,34.5858658 144.418497,34.5858658 Z M133.207165,31.3428806 L133.207165,34.7635925 L135.959631,34.7635925 L135.959631,37.1131866 L133.207165,37.1131866 L133.207165,45.0818466 C133.207165,46.3197867 133.758288,46.896664 134.968239,46.896664 C135.295001,46.8909738 135.621235,46.8680582 135.945578,46.8280129 L135.945578,49.1635734 C135.401582,49.2650807 134.848657,49.3110528 134.295342,49.3007799 C131.364908,49.3007799 130.222071,48.2015949 130.222071,45.3982965 L130.222071,37.1131866 L128.11753,37.1131866 L128.11753,34.7635925 L130.222039,34.7635925 L130.222039,31.3428806 L133.207165,31.3428806 Z M65.4977648,29.3923893 L72.6654181,49.2182069 L69.4055379,49.2182069 L67.5898358,43.8595046 L60.0225052,43.8595046 L58.2052203,49.2182069 L55,49.2182069 L62.1676533,29.3923893 L65.4977648,29.3923893 Z M160.118302,34.6123365 C160.460688,34.6111426 160.80213,34.6482757 161.136233,34.7230404 L161.136233,37.4982717 C160.703991,37.366371 160.253089,37.3058111 159.80131,37.3189805 C158.927853,37.2835939 158.082539,37.6312231 157.487325,38.2705909 C156.89211,38.9099588 156.60646,39.7771882 156.705378,40.6445706 L156.705378,49.218175 L153.734336,49.218175 L153.734336,34.7635925 L156.568001,34.7635925 L156.568001,37.2238587 L156.636745,37.2238587 C157.031908,35.6400738 158.485065,34.550058 160.118302,34.6123365 Z M144.418481,37.0305657 C142.011049,37.0305657 140.580956,38.8859193 140.580956,41.991682 C140.580956,45.1239473 142.011049,46.9512497 144.418481,46.9512497 C146.825914,46.9512497 148.257574,45.1239473 148.257574,41.991682 C148.257574,38.8718858 146.825914,37.0305657 144.418481,37.0305657 Z M81.2662824,37.1412538 C78.996243,37.1412538 77.4693477,39.1057467 77.4693477,41.991682 C77.4693477,44.9041199 78.996243,46.8545793 81.2662824,46.8545793 C83.5769289,46.8545793 85.0913223,44.944656 85.0913223,41.991682 C85.0913223,39.0652266 83.5769129,37.1412538 81.2662824,37.1412538 Z M97.1971648,37.1412538 C94.9271255,37.1412538 93.4002302,39.1057467 93.4002302,41.991682 C93.4002302,44.9041199 94.9271255,46.8545793 97.1971648,46.8545793 C99.5078114,46.8545793 101.022221,44.944656 101.022221,41.991682 C101.022221,39.0652266 99.5077954,37.1412538 97.1971648,37.1412538 Z M63.847609,32.6899602 L63.7648598,32.6899602 L60.8062404,41.3867376 L66.8045978,41.3867376 L63.847609,32.6899602 Z M168.477138,36.9900137 C167.499914,36.9841898 166.560846,37.3684326 165.868661,38.0573369 C165.176475,38.7462411 164.788526,39.6827245 164.791018,40.6586361 L172.027392,40.6586361 C172.081309,39.6916565 171.728843,38.7460675 171.054913,38.0496708 C170.380983,37.3532741 169.446693,36.9692114 168.477138,36.9900137 Z M164.317984,16.6676725 C166.321055,16.6676725 167.529455,18.0343096 167.529455,20.2918153 L167.529455,20.786886 L162.446055,20.786886 L162.446055,20.8663937 C162.401071,21.3998613 162.583513,21.9275295 162.948515,22.3196282 C163.313516,22.7117268 163.827209,22.931874 164.363259,22.9259286 C165.058333,23.0092594 165.73494,22.6649473 166.075941,22.0543781 L167.443589,22.054426 C167.045201,23.4104932 165.731129,24.2866634 164.324235,24.1342849 C163.364312,24.1595903 162.441773,23.7622446 161.801389,23.0476729 C161.161005,22.3331012 160.867516,21.3735437 160.998792,20.4235936 C160.871003,19.4710036 161.163392,18.5099085 161.80021,17.7892999 C162.437028,17.0686914 163.355612,16.6594771 164.317984,16.6676725 Z M71.789236,17.1796623 C72.8906384,17.8622058 73.5093654,19.1092832 73.3859244,20.3978734 C73.5117139,21.6878484 72.8935519,22.9373444 71.7911728,23.6213574 C70.6887938,24.3053703 69.2932247,24.3053703 68.1908457,23.6213574 C67.0884667,22.9373444 66.4703045,21.6878484 66.5960941,20.3978734 C66.4726532,19.1092832 67.0913801,17.8622058 68.1927825,17.1796623 C69.2941849,16.4971187 70.6878336,16.4971187 71.789236,17.1796623 Z M103.023905,17.1795359 C104.125389,17.86209 104.744214,19.1091989 104.620867,20.3978734 C104.746497,21.6878945 104.128222,22.9373553 103.025788,23.6213381 C101.923354,24.3053209 100.527767,24.3053209 99.4253331,23.6213381 C98.3228993,22.9373553 97.7046239,21.6878945 97.8302537,20.3978734 C97.7069075,19.1091989 98.3257321,17.86209 99.4272163,17.1795359 C100.5287,16.4969818 101.922421,16.4969818 103.023905,17.1795359 Z M131.819683,17.1796623 C132.921086,17.8622058 133.539813,19.1092832 133.416372,20.3978734 C133.542161,21.6878484 132.923999,22.9373444 131.82162,23.6213574 C130.719241,24.3053703 129.323672,24.3053703 128.221293,23.6213574 C127.118914,22.9373444 126.500752,21.6878484 126.626542,20.3978734 C126.503101,19.1092832 127.121828,17.8622058 128.22323,17.1796623 C129.324632,16.4971187 130.718281,16.4971187 131.819683,17.1796623 Z M109.335813,16.6676885 C111.140612,16.6676885 112.158542,17.5649432 112.158542,19.0835389 L112.158542,23.9955457 L110.790894,23.9955457 L110.790894,22.98524 L110.678489,22.98524 C110.213982,23.7230426 109.387937,24.1542468 108.516171,24.1139929 C107.905042,24.1774741 107.295542,23.9798208 106.83835,23.5698964 C106.381159,23.1599719 106.118948,22.5760364 106.11654,21.9624494 C106.11654,20.668375 107.081393,19.9223444 108.794058,19.8163182 L110.744052,19.7040656 L110.744052,19.0835389 C110.744052,18.324241 110.241338,17.8954906 109.27025,17.8954906 C108.477146,17.8954906 107.92759,18.1862682 107.769893,18.6945422 L106.394444,18.6945422 C106.539638,17.4597153 107.702763,16.6676885 109.335813,16.6676885 Z M120.748471,14 L120.748471,23.9955137 L119.387074,23.9955137 L119.387074,22.8596882 L119.274669,22.8596882 C118.813256,23.6650254 117.942472,24.1481691 117.013998,24.1139929 C115.182661,24.1140727 114.025771,22.6749687 114.025771,20.3978734 C114.025771,18.1262383 115.195146,16.6871662 117.013982,16.6871662 C117.932403,16.6449061 118.79259,17.136357 119.221576,17.9484318 L119.327746,17.9484318 L119.327746,14 L120.748471,14 Z M149.46436,15.0165641 L149.46436,16.8391727 L151.024045,16.8391727 L151.024045,18.0342458 L149.46436,18.0342458 L149.46436,21.7309194 C149.46436,22.4839747 149.775053,22.8137238 150.48229,22.8137238 C150.663353,22.8131452 150.844234,22.8022123 151.024045,22.7809788 L151.024045,23.9627847 C150.768906,24.008367 150.510404,24.0326173 150.251229,24.0352835 C148.671256,24.0352835 148.042068,23.4802309 148.042068,22.0941798 L148.042068,18.0341819 L146.899247,18.0341819 L146.899247,16.8391088 L148.042068,16.8391088 L148.042068,15.0165641 L149.46436,15.0165641 Z M63.8000815,15.7751464 C64.6695699,16.6920775 65.0814863,17.9500679 64.9224533,19.2028642 C64.9224533,22.2462661 63.275351,23.9956734 60.433885,23.9956734 L56.9882348,23.9956734 L56.9882348,14.4693824 L60.433885,14.4693824 C61.6951813,14.378993 62.930593,14.8582153 63.8000815,15.7751464 Z M75.8527009,16.8064277 L77.1422838,22.2921347 L77.2484541,22.2921347 L78.7285072,16.8064277 L80.0914708,16.8064277 L81.5715239,22.2921347 L81.6839292,22.2921347 L82.9672611,16.8064277 L84.3879861,16.8064277 L82.4114538,23.9955297 L80.9376517,23.9955297 L79.4497969,18.7007528 L79.3373916,18.7007528 L77.8557718,23.9955297 L76.3960063,23.9955297 L74.4116723,16.8064277 L75.8527009,16.8064277 Z M89.6790265,16.6676565 C90.3885605,16.6143828 91.0838537,16.8862065 91.5685902,17.4063783 C92.0533267,17.92655 92.2749037,18.6386215 92.1707588,19.3415395 L92.1707588,23.9954499 L90.7500338,23.9954499 L90.7500338,19.6978231 C90.7500338,18.5425198 90.2473197,17.9679734 89.1965999,17.9679734 C88.7153338,17.9455886 88.2482779,18.1342091 87.9178797,18.4843847 C87.5874814,18.8345603 87.4266928,19.3113666 87.4776677,19.7897997 L87.4776677,23.9955297 L86.0569427,23.9955297 L86.0569427,16.8064277 L87.4245905,16.8064277 L87.4245905,17.9484797 L87.5307608,17.9484797 C87.8999586,17.1076274 88.7626669,16.5932697 89.6790265,16.6676565 Z M154.372893,14 L154.372893,17.961731 L154.485298,17.961731 C154.87223,17.1135196 155.750037,16.5985065 156.680326,16.673899 C157.385831,16.6355618 158.071712,16.9133698 158.551151,17.4316543 C159.030589,17.9499389 159.253648,18.6547176 159.159573,19.3540245 L159.159573,23.9955297 L157.737425,23.9955297 L157.737425,19.7040337 C157.737425,18.5557392 157.201857,17.974184 156.198043,17.974184 C155.703769,17.9337016 155.216802,18.1131482 154.867329,18.4645505 C154.517857,18.8159527 154.341513,19.3034786 154.385443,19.7967926 L154.385443,23.9955297 L152.964718,23.9955297 L152.964654,14 L154.372893,14 Z M95.8552882,14 L95.8552882,23.9955137 L94.4345632,23.9955137 L94.4345632,14 L95.8552882,14 Z M138.944725,16.6676565 C139.654259,16.6143828 140.349552,16.8862065 140.834288,17.4063783 C141.319025,17.92655 141.540602,18.6386215 141.436457,19.3415395 L141.436457,23.9954499 L140.015732,23.9954499 L140.015732,19.6978231 C140.015732,18.5425198 139.513018,17.9679734 138.462298,17.9679734 C137.981032,17.9455886 137.513976,18.1342091 137.183578,18.4843847 C136.85318,18.8345603 136.692391,19.3113666 136.743366,19.7897997 L136.743366,23.9955297 L135.322641,23.9955297 L135.322641,16.8064277 L136.690289,16.8064277 L136.690289,17.9484797 L136.796459,17.9484797 C137.165657,17.1076274 138.028365,16.5932697 138.944725,16.6676565 Z M110.744052,20.7471163 L108.986095,20.8593689 C107.994704,20.9256252 107.545067,21.2623991 107.545067,21.8961771 C107.545067,22.5432063 108.107109,22.919734 108.879989,22.919734 C109.337517,22.9659855 109.794253,22.8248279 110.14564,22.528575 C110.497026,22.2323221 110.712976,21.8063415 110.744052,21.3481492 L110.744052,20.7471163 Z M69.9933514,17.9282356 C68.7584124,17.9282356 68.0637092,18.8395399 68.0637092,20.3978894 C68.0637092,21.9687078 68.7584603,22.8729874 69.9933514,22.8729874 C71.2236221,22.8729874 71.9246082,21.9624494 71.9246082,20.3978734 C71.9246082,18.8395399 71.2235902,17.9282356 69.9933514,17.9282356 Z M101.227511,17.9282356 C99.992572,17.9282356 99.2978689,18.8395399 99.2978689,20.3978894 C99.2978689,21.9687078 99.99262,22.8729874 101.227511,22.8729874 C102.457766,22.8729874 103.158768,21.9624494 103.158768,20.3978734 C103.158768,18.8395399 102.45775,17.9282356 101.227511,17.9282356 Z M130.023799,17.9282356 C128.78886,17.9282356 128.094157,18.8395399 128.094157,20.3978894 C128.094157,21.9687078 128.788908,22.8729874 130.023799,22.8729874 C131.254054,22.8729874 131.95504,21.9624494 131.95504,20.3978734 C131.95504,18.8395399 131.254038,17.9282356 130.023799,17.9282356 Z M117.416841,17.9617469 C116.220878,17.9617469 115.493338,18.8855202 115.493338,20.3978734 C115.493386,21.9226956 116.213125,22.8402424 117.416841,22.8402424 C118.614274,22.8402424 119.354333,21.9094603 119.354333,20.4041159 C119.354333,18.9057962 118.606504,17.9617469 117.416841,17.9617469 Z M60.2683867,15.8155998 L58.4698387,15.8155998 L58.4698387,22.6484502 L60.2683867,22.6484502 C61.169774,22.7022567 62.0474568,22.3475968 62.6577353,21.6829462 C63.2680138,21.0182956 63.545916,20.114415 63.4142789,19.2222781 C63.5363387,18.3338435 63.2544344,17.4374216 62.6456691,16.7781912 C62.0369038,16.1189609 61.1649839,15.7659096 60.2683867,15.8155998 Z M164.310134,17.8752145 C163.813722,17.8689863 163.33583,18.0632249 162.984862,18.4138689 C162.633895,18.764513 162.439601,19.2418417 162.446055,19.7375769 L166.082144,19.7375769 C166.118359,19.2496754 165.946571,18.7691885 165.609113,18.4145239 C165.271655,18.0598592 164.799911,17.8640008 164.310134,17.8752145 Z" id="Download" fill="#FFFFFF"></path>
            </g>
        </g>
    </g>
</svg>
